<?xml version="1.0" encoding="UTF-8"?>
<svg width="18px" height="18px" viewBox="0 0 18 18" version="1.1" xmlns="http://www.w3.org/2000/svg" xmlns:xlink="http://www.w3.org/1999/xlink">
    <title>578A2216-F479-4952-8D13-09FED5DCCBA7</title>
    <g id="dgn" stroke="none" stroke-width="1" fill="none" fill-rule="evenodd">
        <g id="itfn-homepage-375" transform="translate(-333.000000, -449.000000)" fill="#14163A" fill-rule="nonzero">
            <g id="firme" transform="translate(24.000000, 448.000000)">
                <g id="search" transform="translate(309.000000, 1.000000)">
                    <path d="M7.92681644,0 C12.2977909,0 15.8536329,3.55608984 15.8536329,7.92682031 C15.8536329,9.84943147 15.1656646,11.6143344 14.0229675,12.9882896 L17.7856085,16.7509687 C18.0714638,17.0365781 18.0714638,17.5000078 17.7856085,17.7856172 C17.6426633,17.9285273 17.4553509,18 17.2682845,18 C17.0809721,18 16.8938707,17.9285273 16.7509606,17.7856172 L16.7509606,17.7856172 L12.9882832,14.0229743 C11.6143287,15.165672 9.84942666,15.8536406 7.92681644,15.8536406 C3.55608811,15.8536406 0,12.2977969 0,7.92682031 C0,3.55608984 3.55608811,0 7.92681644,0 Z M7.92681644,1.46341406 C4.36292365,1.46341406 1.46341335,4.36296094 1.46341335,7.92685547 C1.46341335,11.49075 4.36292365,14.3902617 7.92681644,14.3902617 C11.4907092,14.3902617 14.3902195,11.4907148 14.3902195,7.92682031 C14.3902195,4.36292578 11.4907092,1.46341406 7.92681644,1.46341406 Z" id="ic-search"></path>
                </g>
            </g>
        </g>
    </g>
</svg>