<svg width="639px" height="321px" viewBox="0 0 639 321" version="1.1" xmlns="http://www.w3.org/2000/svg" xmlns:xlink="http://www.w3.org/1999/xlink">
    <title>F290424A-803E-47A6-9710-3000BCE98941</title>
    <g id="dgn" stroke="none" stroke-width="1" fill="none" fill-rule="evenodd" opacity="0.149999991">
        <g id="itfn-homepage" transform="translate(331.000000, -125.000000)" stroke="#5D6BF6" stroke-width="2.29885057">
            <g id="nis-ilustracija-02" transform="translate(-329.000000, 128.000000)">
                <path d="M297.505011,111.804414 L286.131218,117.754759 L286.131218,127.553379 L280.881563,127.553379 L280.881563,117.754759 L272.450299,113.343724 C272.800644,112.798437 273.006621,112.15108 273.006621,111.454069 C273.006621,109.522115 271.439724,107.954299 269.506851,107.954299 C267.573977,107.954299 266.00708,109.522115 266.00708,111.454069 C266.00708,112.15108 266.213057,112.798437 266.564322,113.343724 L258.133057,117.754759 L258.133057,127.553379 L252.883402,127.553379 L252.883402,117.754759 L241.50869,111.804414 L230.133977,117.754759 L230.133977,127.553379 L224.884322,127.553379 L224.884322,117.754759 L210.078805,109.368552 C210.540414,108.561195 210.808,107.629701 210.808,106.63292 C210.808,103.583724 208.335356,101.112 205.286161,101.112 C202.236966,101.112 199.765241,103.583724 199.765241,106.63292 C199.765241,107.568092 199.998805,108.447172 200.40892,109.217747 L185.337655,117.754759 L185.337655,127.553379 L180.088,127.553379 L180.088,117.754759 L168.713287,111.804414 L157.339494,117.754759 L157.339494,127.553379 L152.089839,127.553379 L152.089839,117.754759 L143.658575,113.343724 C144.00892,112.798437 144.215816,112.15108 144.215816,111.454069 C144.215816,109.522115 142.64892,107.954299 140.715126,107.954299 C138.783172,107.954299 137.216276,109.522115 137.216276,111.454069 C137.216276,112.15108 137.421333,112.798437 137.772598,113.343724 L129.341333,117.754759 L129.341333,127.553379 L124.091678,127.553379 L124.091678,117.754759 L112.717885,111.804414 L101.343172,117.754759 L101.343172,277.693149 L101.693517,277.693149 L124.091678,277.693149 L129.341333,277.693149 L152.089839,277.693149 L157.339494,277.693149 L180.088,277.693149 L185.337655,277.693149 L224.884322,277.693149 L230.133977,277.693149 L252.883402,277.693149 L258.133057,277.693149 L280.881563,277.693149 L286.131218,277.693149 L308.878805,277.693149 L308.878805,127.553379 L308.878805,117.754759 L297.505011,111.804414 Z" id="Stroke-1"></path>
                <path d="M208.52331,141.253977 C208.52331,143.139034 206.995954,144.666391 205.110897,144.666391 C203.225839,144.666391 201.698483,143.139034 201.698483,141.253977 C201.698483,139.36892 203.225839,137.841563 205.110897,137.841563 C206.995954,137.841563 208.52331,139.36892 208.52331,141.253977 Z" id="Stroke-3"></path>
                <path d="M244.982529,141.253977 C244.982529,143.139034 243.454253,144.666391 241.570115,144.666391 C239.685057,144.666391 238.157701,143.139034 238.157701,141.253977 C238.157701,139.36892 239.685057,137.841563 241.570115,137.841563 C243.454253,137.841563 244.982529,139.36892 244.982529,141.253977 Z" id="Stroke-5"></path>
                <path d="M172.258115,141.253977 C172.258115,143.139034 170.730759,144.666391 168.845701,144.666391 C166.961563,144.666391 165.433287,143.139034 165.433287,141.253977 C165.433287,139.36892 166.961563,137.841563 168.845701,137.841563 C170.730759,137.841563 172.258115,139.36892 172.258115,141.253977 Z" id="Stroke-7"></path>
                <polygon id="Stroke-9" points="170.289195 277.693793 239.934253 277.693793 239.934253 194.048736 170.289195 194.048736"></polygon>
                <path d="M205.110989,205.319172 C217.736276,205.319172 228.874667,211.686069 235.491678,221.38354 L235.491678,199.298023 L174.731218,199.298023 L174.731218,221.38354 C181.34823,211.686069 192.485701,205.319172 205.110989,205.319172 Z" id="Stroke-11"></path>
                <path d="M205.110989,214.898023 C218.642023,214.898023 230.286161,222.971586 235.491678,234.56423 L235.491678,221.38354 C228.874667,211.686069 217.736276,205.319172 205.110989,205.319172 C192.485701,205.319172 181.34823,211.686069 174.731218,221.38354 L174.731218,234.56423 C179.935816,222.971586 191.579954,214.898023 205.110989,214.898023 Z" id="Stroke-12"></path>
                <path d="M205.110989,214.898023 C191.579954,214.898023 179.935816,222.971586 174.731218,234.56423 L174.731218,261.805609 L174.731218,277.693425 L189.698575,277.693425 L220.524322,277.693425 L235.491678,277.693425 L235.491678,261.805609 L235.491678,234.56423 C230.286161,222.971586 218.642023,214.898023 205.110989,214.898023 Z" id="Stroke-13"></path>
                <path d="M205.110989,223.446897 C194.386391,223.446897 185.085241,229.517701 180.437885,238.405977 L180.437885,264.149425 L180.437885,277.693333 L196.352368,277.693333 L213.869609,277.693333 L229.784092,277.693333 L229.784092,264.149425 L229.784092,238.405977 C225.137655,229.517701 215.835586,223.446897 205.110989,223.446897 Z" id="Stroke-14"></path>
                <path d="M205.110989,236.220782 C197.476046,236.220782 191.28754,242.410207 191.28754,250.045149 L191.28754,277.693885 L218.935356,277.693885 L218.935356,250.045149 C218.935356,242.410207 212.745931,236.220782 205.110989,236.220782 Z" id="Stroke-15"></path>
                <polygon id="Stroke-16" points="239.918621 277.693793 261.735632 277.693793 261.735632 164.430345 239.918621 164.430345"></polygon>
                <polygon id="Stroke-17" points="255.022989 237.565885 250.828046 231.146575 246.631264 237.565885 246.631264 277.693701 255.022989 277.693701"></polygon>
                <polygon id="Stroke-18" points="148.472184 277.693793 170.289195 277.693793 170.289195 164.430345 148.472184 164.430345"></polygon>
                <polygon id="Stroke-19" points="148.472184 277.693793 261.735632 277.693793 261.735632 164.430345 148.472184 164.430345"></polygon>
                <polygon id="Stroke-20" points="163.576368 237.565885 159.380506 231.146575 155.184644 237.565885 155.184644 277.693701 163.576368 277.693701"></polygon>
                <line x1="160.971218" y1="127.553379" x2="176.720184" y2="127.553379" id="Stroke-21"></line>
                <line x1="233.695724" y1="127.553379" x2="249.44469" y2="127.553379" id="Stroke-22"></line>
                <line x1="293.130023" y1="127.553379" x2="308.878989" y2="127.553379" id="Stroke-23"></line>
                <line x1="101.342989" y1="127.553379" x2="117.091954" y2="127.553379" id="Stroke-24"></line>
                <line x1="101.342989" y1="171.736184" x2="141.487356" y2="171.736184" id="Stroke-25"></line>
                <line x1="101.342989" y1="260.794207" x2="141.487356" y2="260.794207" id="Stroke-26"></line>
                <line x1="268.735264" y1="171.736184" x2="308.878713" y2="171.736184" id="Stroke-27"></line>
                <line x1="148.645517" y1="157.609011" x2="261.908966" y2="157.609011" id="Stroke-28"></line>
                <line x1="268.735264" y1="260.794207" x2="308.878713" y2="260.794207" id="Stroke-29"></line>
                <path d="M225.947034,315.962115 C221.645425,315.962115 218.157609,312.475218 218.157609,308.173609 C218.157609,312.475218 214.670713,315.962115 210.370023,315.962115 C206.068414,315.962115 202.581517,312.475218 202.581517,308.173609 C202.581517,312.475218 199.093701,315.962115 194.792092,315.962115 C190.490483,315.962115 187.003586,312.475218 187.003586,308.173609 C187.003586,312.475218 183.51577,315.962115 179.21508,315.962115 C174.913471,315.962115 171.426575,312.475218 171.426575,308.173609 C171.426575,312.475218 167.938759,315.962115 163.637149,315.962115 C159.33646,315.962115 155.849563,312.475218 155.849563,308.173609 C155.849563,312.475218 152.362667,315.962115 148.060138,315.962115 C143.758529,315.962115 140.271632,312.475218 140.271632,308.173609 C140.271632,312.475218 136.784736,315.962115 132.482207,315.962115 C128.181517,315.962115 124.694621,312.475218 124.694621,308.173609 C124.694621,312.475218 121.207724,315.962115 116.905195,315.962115 C112.603586,315.962115 109.11669,312.475218 109.11669,308.173609 C109.11669,312.475218 105.629793,315.962115 101.329103,315.962115 C97.0265747,315.962115 93.5396782,312.475218 93.5396782,308.173609 C93.5396782,312.475218 90.0527816,315.962115 85.7511724,315.962115 C81.4486437,315.962115 77.9617471,312.475218 77.9617471,308.173609 C77.9617471,312.475218 74.4748506,315.962115 70.1741609,315.962115 C65.8716322,315.962115 62.3847356,312.475218 62.3847356,308.173609 C62.3847356,312.475218 58.8978391,315.962115 54.5962299,315.962115" id="Stroke-32"></path>
                <path d="M437.308322,315.962115 C433.006713,315.962115 429.518897,312.475218 429.518897,308.173609 C429.518897,312.475218 426.032,315.962115 421.73131,315.962115 C417.429701,315.962115 413.942805,312.475218 413.942805,308.173609 C413.942805,312.475218 410.454989,315.962115 406.153379,315.962115 C401.85177,315.962115 398.364874,312.475218 398.364874,308.173609 C398.364874,312.475218 394.877057,315.962115 390.576368,315.962115 C386.274759,315.962115 382.787862,312.475218 382.787862,308.173609 C382.787862,312.475218 379.300046,315.962115 374.998437,315.962115 C370.697747,315.962115 367.210851,312.475218 367.210851,308.173609 C367.210851,312.475218 363.723954,315.962115 359.421425,315.962115 C355.119816,315.962115 351.63292,312.475218 351.63292,308.173609 C351.63292,312.475218 348.146023,315.962115 343.843494,315.962115 C339.542805,315.962115 336.055908,312.475218 336.055908,308.173609 C336.055908,312.475218 332.569011,315.962115 328.266483,315.962115 C323.964874,315.962115 320.477977,312.475218 320.477977,308.173609 C320.477977,312.475218 316.99108,315.962115 312.690391,315.962115 C308.387862,315.962115 304.900966,312.475218 304.900966,308.173609 C304.900966,312.475218 301.414069,315.962115 297.11246,315.962115 C292.809931,315.962115 289.323034,312.475218 289.323034,308.173609 C289.323034,312.475218 285.836138,315.962115 281.535448,315.962115 C277.23292,315.962115 273.746023,312.475218 273.746023,308.173609 C273.746023,312.475218 270.259126,315.962115 265.957517,315.962115" id="Stroke-33"></path>
                <path d="M636.308322,315.962115 C632.006713,315.962115 628.518897,312.475218 628.518897,308.173609 C628.518897,312.475218 625.032,315.962115 620.73131,315.962115 C616.429701,315.962115 612.942805,312.475218 612.942805,308.173609 C612.942805,312.475218 609.454989,315.962115 605.153379,315.962115 C600.85177,315.962115 597.364874,312.475218 597.364874,308.173609 C597.364874,312.475218 593.877057,315.962115 589.576368,315.962115 C585.274759,315.962115 581.787862,312.475218 581.787862,308.173609 C581.787862,312.475218 578.300046,315.962115 573.998437,315.962115 C569.697747,315.962115 566.210851,312.475218 566.210851,308.173609 C566.210851,312.475218 562.723954,315.962115 558.421425,315.962115 C554.119816,315.962115 550.63292,312.475218 550.63292,308.173609 C550.63292,312.475218 547.146023,315.962115 542.843494,315.962115 C538.542805,315.962115 535.055908,312.475218 535.055908,308.173609 C535.055908,312.475218 531.569011,315.962115 527.266483,315.962115 C522.964874,315.962115 519.477977,312.475218 519.477977,308.173609 C519.477977,312.475218 515.99108,315.962115 511.690391,315.962115 C507.387862,315.962115 503.900966,312.475218 503.900966,308.173609 C503.900966,312.475218 500.414069,315.962115 496.11246,315.962115 C491.809931,315.962115 488.323034,312.475218 488.323034,308.173609 C488.323034,312.475218 484.836138,315.962115 480.535448,315.962115 C476.23292,315.962115 472.746023,312.475218 472.746023,308.173609 C472.746023,312.475218 469.259126,315.962115 464.957517,315.962115" id="Stroke-33"></path>
                <line x1="308.878897" y1="171.736184" x2="439.677057" y2="171.736184" id="Stroke-36"></line>
                <line x1="369.133977" y1="28.8752184" x2="369.133977" y2="127.246713" id="Stroke-37"></line>
                <line x1="543.96331" y1="28.8752184" x2="543.96331" y2="127.246713" id="Stroke-38"></line>
                <line x1="473.499954" y1="171.736184" x2="600.42869" y2="171.736184" id="Stroke-39"></line>
                <polygon id="Stroke-40" points="23.6212414 60.8552644 47.0971034 78.0607816 47.0971034 43.6497471"></polygon>
                <polygon id="Stroke-41" points="23.6212414 95.2662069 47.0971034 112.471724 47.0971034 78.0606897"></polygon>
                <polygon id="Stroke-42" points="47.0973793 78.0606897 70.5741609 95.2662069 70.5741609 60.8551724"></polygon>
                <polygon id="Stroke-43" points="0.144183908 43.6498391 23.6209655 60.8553563 23.6209655 26.4443218"></polygon>
                <polygon id="Stroke-44" points="0.144183908 112.471632 23.6209655 129.677149 23.6209655 95.2661149"></polygon>
                <polygon id="Stroke-45" points="23.6212414 78.0167356 0.14445977 60.8112184 0.14445977 95.2222529"></polygon>
                <path d="M457.313747,231.713747 C457.313747,231.713747 436.030069,238.490759 436.030069,246.851218 L436.030069,277.126161 L478.597425,277.126161 L478.597425,246.851218 C478.597425,238.490759 457.313747,231.713747 457.313747,231.713747 Z" id="Stroke-52"></path>
                <path d="M369.134897,126.102161 C369.134897,126.102161 347.851218,132.880092 347.851218,141.239632 L347.851218,171.514575 L390.418575,171.514575 L390.418575,141.239632 C390.418575,132.880092 369.134897,126.102161 369.134897,126.102161 Z" id="Stroke-53"></path>
                <path d="M543.96331,126.102161 C543.96331,126.102161 522.679632,132.880092 522.679632,141.239632 L522.679632,171.514575 L565.246989,171.514575 L565.246989,141.239632 C565.246989,132.880092 543.96331,126.102161 543.96331,126.102161 Z" id="Stroke-54"></path>
                <path d="M387.190713,205.49692 C387.190713,215.469333 379.107034,223.553011 369.134621,223.553011 C359.163126,223.553011 351.079448,215.469333 351.079448,205.49692 C351.079448,195.524506 359.163126,187.440828 369.134621,187.440828 C379.107034,187.440828 387.190713,195.524506 387.190713,205.49692 Z" id="Stroke-55"></path>
                <path d="M392.377471,241.608644 C392.377471,254.445425 381.971954,264.850943 369.135172,264.850943 C356.298391,264.850943 345.891954,254.445425 345.891954,241.608644 C345.891954,228.771862 356.298391,218.366345 369.135172,218.366345 C381.971954,218.366345 392.377471,228.771862 392.377471,241.608644 Z" id="Stroke-56"></path>
                <line x1="369.134897" y1="277.693425" x2="369.134897" y2="199.532506" id="Stroke-57"></line>
                <line x1="369.134897" y1="213.401931" x2="377.060414" y2="205.477333" id="Stroke-58"></line>
                <line x1="369.134897" y1="246.850207" x2="359.64708" y2="237.362391" id="Stroke-59"></line>
                <path d="M75.8526897,220.895632 C75.8526897,235.632184 63.906023,247.57977 49.1685517,247.57977 C34.432,247.57977 22.4853333,235.632184 22.4853333,220.895632 C22.4853333,206.158161 34.432,194.210575 49.1685517,194.210575 C63.906023,194.210575 75.8526897,206.158161 75.8526897,220.895632 Z" id="Stroke-60"></path>
                <line x1="49.1690115" y1="278.230437" x2="49.1690115" y2="220.299402" id="Stroke-61"></line>
                <line x1="49.1690115" y1="233.862621" x2="40.8931494" y2="225.586759" id="Stroke-62"></line>
                <line x1="49.1690115" y1="246.046529" x2="59.283954" y2="235.931586" id="Stroke-63"></line>
                <path d="M581.544184,220.895632 C581.544184,235.632184 569.597517,247.57977 554.860046,247.57977 C540.122575,247.57977 528.175908,235.632184 528.175908,220.895632 C528.175908,206.158161 540.122575,194.210575 554.860046,194.210575 C569.597517,194.210575 581.544184,206.158161 581.544184,220.895632 Z" id="Stroke-64"></path>
                <line x1="554.860414" y1="278.230437" x2="554.860414" y2="220.299402" id="Stroke-65"></line>
                <line x1="554.860414" y1="233.862621" x2="546.584552" y2="225.586759" id="Stroke-66"></line>
                <line x1="554.860414" y1="246.046529" x2="564.975356" y2="235.931586" id="Stroke-67"></line>
                <path d="M369.133977,104.056552 C383.882483,104.056552 395.838345,92.1006897 395.838345,77.3531034 C395.838345,62.6045977 383.882483,50.6487356 369.133977,50.6487356" id="Stroke-102"></path>
                <path d="M231.980598,78.2098391 C231.980598,63.4613333 220.025655,51.5054713 205.277149,51.5054713 C190.528644,51.5054713 178.572782,63.4613333 178.572782,78.2098391" id="Stroke-103"></path>
                <polygon id="Stroke-104" points="456.696828 148.808736 473.499586 125.88 439.893149 125.88"></polygon>
                <polygon id="Stroke-105" points="473.499954 171.736184 490.302713 148.808368 456.697195 148.808368"></polygon>
                <polygon id="Stroke-106" points="439.892782 171.736184 456.69646 148.808368 423.090023 148.808368"></polygon>
                <polygon id="Stroke-107" points="456.696828 194.664552 439.893149 217.593287 473.499586 217.593287"></polygon>
                <polygon id="Stroke-108" points="439.892782 171.736184 423.090023 194.66492 456.69646 194.66492"></polygon>
                <polygon id="Stroke-109" points="473.499954 171.736184 456.697195 194.66492 490.302713 194.66492"></polygon>
                <polygon id="Stroke-110" points="456.696828 161.506299 464.193839 171.736184 456.696828 181.966989 449.199816 171.736184"></polygon>
                <polygon id="Stroke-112" points="219.737471 28.6031264 195.558161 28.6031264 195.558161 0.683126437"></polygon>
                <path d="M466.19669,14.3789425 C466.19669,17.5164138 463.653241,20.0607816 460.51577,20.0607816 C457.378299,20.0607816 454.834851,17.5164138 454.834851,14.3789425 C454.834851,11.2414713 457.378299,8.69802299 460.51577,8.69802299 C463.653241,8.69802299 466.19669,11.2414713 466.19669,14.3789425 Z" id="Stroke-113"></path>
                <line x1="239.128552" y1="14.9204598" x2="421.079816" y2="14.9204598" id="Stroke-114"></line>
                <line x1="70.5743448" y1="78.0616092" x2="369.135264" y2="78.0616092" id="Stroke-115"></line>
            </g>
        </g>
    </g>
</svg>