<?xml version="1.0" encoding="UTF-8"?>
<svg width="925px" height="321px" viewBox="0 0 925 321" version="1.1" xmlns="http://www.w3.org/2000/svg" xmlns:xlink="http://www.w3.org/1999/xlink">
    <title>507BDEE5-A03E-4C27-A7C7-203218A87112</title>
    <g id="dgn" stroke="none" stroke-width="1" fill="none" fill-rule="evenodd" opacity="0.149999991">
        <g id="itfn-homepage" transform="translate(-847.000000, -125.000000)" stroke="#5D6BF6" stroke-width="2.29885057">
            <g id="nis-ilustracija" transform="translate(848.000000, 128.000000)">
                <path d="M298.505011,111.804414 L287.131218,117.754759 L287.131218,127.553379 L281.881563,127.553379 L281.881563,117.754759 L273.450299,113.343724 C273.800644,112.798437 274.006621,112.15108 274.006621,111.454069 C274.006621,109.522115 272.439724,107.954299 270.506851,107.954299 C268.573977,107.954299 267.00708,109.522115 267.00708,111.454069 C267.00708,112.15108 267.213057,112.798437 267.564322,113.343724 L259.133057,117.754759 L259.133057,127.553379 L253.883402,127.553379 L253.883402,117.754759 L242.50869,111.804414 L231.133977,117.754759 L231.133977,127.553379 L225.884322,127.553379 L225.884322,117.754759 L211.078805,109.368552 C211.540414,108.561195 211.808,107.629701 211.808,106.63292 C211.808,103.583724 209.335356,101.112 206.286161,101.112 C203.236966,101.112 200.765241,103.583724 200.765241,106.63292 C200.765241,107.568092 200.998805,108.447172 201.40892,109.217747 L186.337655,117.754759 L186.337655,127.553379 L181.088,127.553379 L181.088,117.754759 L169.713287,111.804414 L158.339494,117.754759 L158.339494,127.553379 L153.089839,127.553379 L153.089839,117.754759 L144.658575,113.343724 C145.00892,112.798437 145.215816,112.15108 145.215816,111.454069 C145.215816,109.522115 143.64892,107.954299 141.715126,107.954299 C139.783172,107.954299 138.216276,109.522115 138.216276,111.454069 C138.216276,112.15108 138.421333,112.798437 138.772598,113.343724 L130.341333,117.754759 L130.341333,127.553379 L125.091678,127.553379 L125.091678,117.754759 L113.717885,111.804414 L102.343172,117.754759 L102.343172,277.693149 L102.693517,277.693149 L125.091678,277.693149 L130.341333,277.693149 L153.089839,277.693149 L158.339494,277.693149 L181.088,277.693149 L186.337655,277.693149 L225.884322,277.693149 L231.133977,277.693149 L253.883402,277.693149 L259.133057,277.693149 L281.881563,277.693149 L287.131218,277.693149 L309.878805,277.693149 L309.878805,127.553379 L309.878805,117.754759 L298.505011,111.804414 Z" id="Stroke-1"></path>
                <path d="M209.52331,141.253977 C209.52331,143.139034 207.995954,144.666391 206.110897,144.666391 C204.225839,144.666391 202.698483,143.139034 202.698483,141.253977 C202.698483,139.36892 204.225839,137.841563 206.110897,137.841563 C207.995954,137.841563 209.52331,139.36892 209.52331,141.253977 Z" id="Stroke-3"></path>
                <path d="M245.982529,141.253977 C245.982529,143.139034 244.454253,144.666391 242.570115,144.666391 C240.685057,144.666391 239.157701,143.139034 239.157701,141.253977 C239.157701,139.36892 240.685057,137.841563 242.570115,137.841563 C244.454253,137.841563 245.982529,139.36892 245.982529,141.253977 Z" id="Stroke-5"></path>
                <path d="M173.258115,141.253977 C173.258115,143.139034 171.730759,144.666391 169.845701,144.666391 C167.961563,144.666391 166.433287,143.139034 166.433287,141.253977 C166.433287,139.36892 167.961563,137.841563 169.845701,137.841563 C171.730759,137.841563 173.258115,139.36892 173.258115,141.253977 Z" id="Stroke-7"></path>
                <polygon id="Stroke-9" points="171.289195 277.693793 240.934253 277.693793 240.934253 194.048736 171.289195 194.048736"></polygon>
                <path d="M206.110989,205.319172 C218.736276,205.319172 229.874667,211.686069 236.491678,221.38354 L236.491678,199.298023 L175.731218,199.298023 L175.731218,221.38354 C182.34823,211.686069 193.485701,205.319172 206.110989,205.319172 Z" id="Stroke-11"></path>
                <path d="M206.110989,214.898023 C219.642023,214.898023 231.286161,222.971586 236.491678,234.56423 L236.491678,221.38354 C229.874667,211.686069 218.736276,205.319172 206.110989,205.319172 C193.485701,205.319172 182.34823,211.686069 175.731218,221.38354 L175.731218,234.56423 C180.935816,222.971586 192.579954,214.898023 206.110989,214.898023 Z" id="Stroke-12"></path>
                <path d="M206.110989,214.898023 C192.579954,214.898023 180.935816,222.971586 175.731218,234.56423 L175.731218,261.805609 L175.731218,277.693425 L190.698575,277.693425 L221.524322,277.693425 L236.491678,277.693425 L236.491678,261.805609 L236.491678,234.56423 C231.286161,222.971586 219.642023,214.898023 206.110989,214.898023 Z" id="Stroke-13"></path>
                <path d="M206.110989,223.446897 C195.386391,223.446897 186.085241,229.517701 181.437885,238.405977 L181.437885,264.149425 L181.437885,277.693333 L197.352368,277.693333 L214.869609,277.693333 L230.784092,277.693333 L230.784092,264.149425 L230.784092,238.405977 C226.137655,229.517701 216.835586,223.446897 206.110989,223.446897 Z" id="Stroke-14"></path>
                <path d="M206.110989,236.220782 C198.476046,236.220782 192.28754,242.410207 192.28754,250.045149 L192.28754,277.693885 L219.935356,277.693885 L219.935356,250.045149 C219.935356,242.410207 213.745931,236.220782 206.110989,236.220782 Z" id="Stroke-15"></path>
                <polygon id="Stroke-16" points="240.918621 277.693793 262.735632 277.693793 262.735632 164.430345 240.918621 164.430345"></polygon>
                <polygon id="Stroke-17" points="256.022989 237.565885 251.828046 231.146575 247.631264 237.565885 247.631264 277.693701 256.022989 277.693701"></polygon>
                <polygon id="Stroke-18" points="149.472184 277.693793 171.289195 277.693793 171.289195 164.430345 149.472184 164.430345"></polygon>
                <polygon id="Stroke-19" points="149.472184 277.693793 262.735632 277.693793 262.735632 164.430345 149.472184 164.430345"></polygon>
                <polygon id="Stroke-20" points="164.576368 237.565885 160.380506 231.146575 156.184644 237.565885 156.184644 277.693701 164.576368 277.693701"></polygon>
                <line x1="161.971218" y1="127.553379" x2="177.720184" y2="127.553379" id="Stroke-21"></line>
                <line x1="234.695724" y1="127.553379" x2="250.44469" y2="127.553379" id="Stroke-22"></line>
                <line x1="294.130023" y1="127.553379" x2="309.878989" y2="127.553379" id="Stroke-23"></line>
                <line x1="102.342989" y1="127.553379" x2="118.091954" y2="127.553379" id="Stroke-24"></line>
                <line x1="102.342989" y1="171.736184" x2="142.487356" y2="171.736184" id="Stroke-25"></line>
                <line x1="102.342989" y1="260.794207" x2="142.487356" y2="260.794207" id="Stroke-26"></line>
                <line x1="269.735264" y1="171.736184" x2="309.878713" y2="171.736184" id="Stroke-27"></line>
                <line x1="149.645517" y1="157.609011" x2="262.908966" y2="157.609011" id="Stroke-28"></line>
                <line x1="269.735264" y1="260.794207" x2="309.878713" y2="260.794207" id="Stroke-29"></line>
                <line x1="0.224643678" y1="284.158989" x2="922.806713" y2="284.158989" id="Stroke-30"></line>
                <line x1="0.224643678" y1="277.693425" x2="922.806713" y2="277.693425" id="Stroke-31"></line>
                <path d="M226.947034,315.962115 C222.645425,315.962115 219.157609,312.475218 219.157609,308.173609 C219.157609,312.475218 215.670713,315.962115 211.370023,315.962115 C207.068414,315.962115 203.581517,312.475218 203.581517,308.173609 C203.581517,312.475218 200.093701,315.962115 195.792092,315.962115 C191.490483,315.962115 188.003586,312.475218 188.003586,308.173609 C188.003586,312.475218 184.51577,315.962115 180.21508,315.962115 C175.913471,315.962115 172.426575,312.475218 172.426575,308.173609 C172.426575,312.475218 168.938759,315.962115 164.637149,315.962115 C160.33646,315.962115 156.849563,312.475218 156.849563,308.173609 C156.849563,312.475218 153.362667,315.962115 149.060138,315.962115 C144.758529,315.962115 141.271632,312.475218 141.271632,308.173609 C141.271632,312.475218 137.784736,315.962115 133.482207,315.962115 C129.181517,315.962115 125.694621,312.475218 125.694621,308.173609 C125.694621,312.475218 122.207724,315.962115 117.905195,315.962115 C113.603586,315.962115 110.11669,312.475218 110.11669,308.173609 C110.11669,312.475218 106.629793,315.962115 102.329103,315.962115 C98.0265747,315.962115 94.5396782,312.475218 94.5396782,308.173609 C94.5396782,312.475218 91.0527816,315.962115 86.7511724,315.962115 C82.4486437,315.962115 78.9617471,312.475218 78.9617471,308.173609 C78.9617471,312.475218 75.4748506,315.962115 71.1741609,315.962115 C66.8716322,315.962115 63.3847356,312.475218 63.3847356,308.173609 C63.3847356,312.475218 59.8978391,315.962115 55.5962299,315.962115" id="Stroke-32"></path>
                <path d="M438.308322,315.962115 C434.006713,315.962115 430.518897,312.475218 430.518897,308.173609 C430.518897,312.475218 427.032,315.962115 422.73131,315.962115 C418.429701,315.962115 414.942805,312.475218 414.942805,308.173609 C414.942805,312.475218 411.454989,315.962115 407.153379,315.962115 C402.85177,315.962115 399.364874,312.475218 399.364874,308.173609 C399.364874,312.475218 395.877057,315.962115 391.576368,315.962115 C387.274759,315.962115 383.787862,312.475218 383.787862,308.173609 C383.787862,312.475218 380.300046,315.962115 375.998437,315.962115 C371.697747,315.962115 368.210851,312.475218 368.210851,308.173609 C368.210851,312.475218 364.723954,315.962115 360.421425,315.962115 C356.119816,315.962115 352.63292,312.475218 352.63292,308.173609 C352.63292,312.475218 349.146023,315.962115 344.843494,315.962115 C340.542805,315.962115 337.055908,312.475218 337.055908,308.173609 C337.055908,312.475218 333.569011,315.962115 329.266483,315.962115 C324.964874,315.962115 321.477977,312.475218 321.477977,308.173609 C321.477977,312.475218 317.99108,315.962115 313.690391,315.962115 C309.387862,315.962115 305.900966,312.475218 305.900966,308.173609 C305.900966,312.475218 302.414069,315.962115 298.11246,315.962115 C293.809931,315.962115 290.323034,312.475218 290.323034,308.173609 C290.323034,312.475218 286.836138,315.962115 282.535448,315.962115 C278.23292,315.962115 274.746023,312.475218 274.746023,308.173609 C274.746023,312.475218 271.259126,315.962115 266.957517,315.962115" id="Stroke-33"></path>
                <path d="M649.669701,315.962115 C645.368092,315.962115 641.880276,312.475218 641.880276,308.173609 C641.880276,312.475218 638.393379,315.962115 634.09269,315.962115 C629.79108,315.962115 626.304184,312.475218 626.304184,308.173609 C626.304184,312.475218 622.816368,315.962115 618.514759,315.962115 C614.213149,315.962115 610.726253,312.475218 610.726253,308.173609 C610.726253,312.475218 607.238437,315.962115 602.937747,315.962115 C598.636138,315.962115 595.149241,312.475218 595.149241,308.173609 C595.149241,312.475218 591.661425,315.962115 587.359816,315.962115 C583.059126,315.962115 579.57223,312.475218 579.57223,308.173609 C579.57223,312.475218 576.085333,315.962115 571.782805,315.962115 C567.481195,315.962115 563.994299,312.475218 563.994299,308.173609 C563.994299,312.475218 560.507402,315.962115 556.204874,315.962115 C551.904184,315.962115 548.417287,312.475218 548.417287,308.173609 C548.417287,312.475218 544.930391,315.962115 540.627862,315.962115 C536.326253,315.962115 532.839356,312.475218 532.839356,308.173609 C532.839356,312.475218 529.35246,315.962115 525.05177,315.962115 C520.749241,315.962115 517.262345,312.475218 517.262345,308.173609 C517.262345,312.475218 513.775448,315.962115 509.473839,315.962115 C505.17131,315.962115 501.684414,312.475218 501.684414,308.173609 C501.684414,312.475218 498.197517,315.962115 493.896828,315.962115 C489.594299,315.962115 486.107402,312.475218 486.107402,308.173609 C486.107402,312.475218 482.620506,315.962115 478.318897,315.962115" id="Stroke-34"></path>
                <path d="M861.03108,315.962115 C856.729471,315.962115 853.241655,312.475218 853.241655,308.173609 C853.241655,312.475218 849.754759,315.962115 845.454069,315.962115 C841.15246,315.962115 837.665563,312.475218 837.665563,308.173609 C837.665563,312.475218 834.177747,315.962115 829.876138,315.962115 C825.574529,315.962115 822.087632,312.475218 822.087632,308.173609 C822.087632,312.475218 818.599816,315.962115 814.299126,315.962115 C809.997517,315.962115 806.510621,312.475218 806.510621,308.173609 C806.510621,312.475218 803.022805,315.962115 798.721195,315.962115 C794.420506,315.962115 790.933609,312.475218 790.933609,308.173609 C790.933609,312.475218 787.446713,315.962115 783.144184,315.962115 C778.842575,315.962115 775.355678,312.475218 775.355678,308.173609 C775.355678,312.475218 771.868782,315.962115 767.566253,315.962115 C763.265563,315.962115 759.778667,312.475218 759.778667,308.173609 C759.778667,312.475218 756.29177,315.962115 751.989241,315.962115 C747.687632,315.962115 744.200736,312.475218 744.200736,308.173609 C744.200736,312.475218 740.713839,315.962115 736.413149,315.962115 C732.110621,315.962115 728.623724,312.475218 728.623724,308.173609 C728.623724,312.475218 725.136828,315.962115 720.835218,315.962115 C716.53269,315.962115 713.045793,312.475218 713.045793,308.173609 C713.045793,312.475218 709.558897,315.962115 705.258207,315.962115 C700.955678,315.962115 697.468782,312.475218 697.468782,308.173609 C697.468782,312.475218 693.981885,315.962115 689.680276,315.962115" id="Stroke-35"></path>
                <line x1="309.878897" y1="171.736184" x2="440.677057" y2="171.736184" id="Stroke-36"></line>
                <line x1="370.133977" y1="28.8752184" x2="370.133977" y2="127.246713" id="Stroke-37"></line>
                <line x1="544.96331" y1="28.8752184" x2="544.96331" y2="127.246713" id="Stroke-38"></line>
                <line x1="474.499954" y1="171.736184" x2="601.42869" y2="171.736184" id="Stroke-39"></line>
                <polygon id="Stroke-40" points="24.6212414 60.8552644 48.0971034 78.0607816 48.0971034 43.6497471"></polygon>
                <polygon id="Stroke-41" points="24.6212414 95.2662069 48.0971034 112.471724 48.0971034 78.0606897"></polygon>
                <polygon id="Stroke-42" points="48.0973793 78.0606897 71.5741609 95.2662069 71.5741609 60.8551724"></polygon>
                <polygon id="Stroke-43" points="1.14418391 43.6498391 24.6209655 60.8553563 24.6209655 26.4443218"></polygon>
                <polygon id="Stroke-44" points="1.14418391 112.471632 24.6209655 129.677149 24.6209655 95.2661149"></polygon>
                <polygon id="Stroke-45" points="24.6212414 78.0167356 1.14445977 60.8112184 1.14445977 95.2222529"></polygon>
                <polygon id="Stroke-46" points="864.61223 111.922023 872.885333 100.632828 856.339126 100.632828"></polygon>
                <polygon id="Stroke-47" points="881.158529 111.922023 889.431632 100.632828 872.885425 100.632828"></polygon>
                <polygon id="Stroke-48" points="872.885425 100.632552 881.158529 89.3442759 864.612322 89.3442759"></polygon>
                <polygon id="Stroke-49" points="856.339034 123.210667 864.612138 111.922391 848.065931 111.922391"></polygon>
                <polygon id="Stroke-50" points="889.431724 123.210667 897.704828 111.922391 881.158621 111.922391"></polygon>
                <polygon id="Stroke-51" points="872.863816 111.922023 864.590713 123.210299 881.137839 123.210299"></polygon>
                <path d="M458.313747,231.713747 C458.313747,231.713747 437.030069,238.490759 437.030069,246.851218 L437.030069,277.126161 L479.597425,277.126161 L479.597425,246.851218 C479.597425,238.490759 458.313747,231.713747 458.313747,231.713747 Z" id="Stroke-52"></path>
                <path d="M370.134897,126.102161 C370.134897,126.102161 348.851218,132.880092 348.851218,141.239632 L348.851218,171.514575 L391.418575,171.514575 L391.418575,141.239632 C391.418575,132.880092 370.134897,126.102161 370.134897,126.102161 Z" id="Stroke-53"></path>
                <path d="M544.96331,126.102161 C544.96331,126.102161 523.679632,132.880092 523.679632,141.239632 L523.679632,171.514575 L566.246989,171.514575 L566.246989,141.239632 C566.246989,132.880092 544.96331,126.102161 544.96331,126.102161 Z" id="Stroke-54"></path>
                <path d="M388.190713,205.49692 C388.190713,215.469333 380.107034,223.553011 370.134621,223.553011 C360.163126,223.553011 352.079448,215.469333 352.079448,205.49692 C352.079448,195.524506 360.163126,187.440828 370.134621,187.440828 C380.107034,187.440828 388.190713,195.524506 388.190713,205.49692 Z" id="Stroke-55"></path>
                <path d="M393.377471,241.608644 C393.377471,254.445425 382.971954,264.850943 370.135172,264.850943 C357.298391,264.850943 346.891954,254.445425 346.891954,241.608644 C346.891954,228.771862 357.298391,218.366345 370.135172,218.366345 C382.971954,218.366345 393.377471,228.771862 393.377471,241.608644 Z" id="Stroke-56"></path>
                <line x1="370.134897" y1="277.693425" x2="370.134897" y2="199.532506" id="Stroke-57"></line>
                <line x1="370.134897" y1="213.401931" x2="378.060414" y2="205.477333" id="Stroke-58"></line>
                <line x1="370.134897" y1="246.850207" x2="360.64708" y2="237.362391" id="Stroke-59"></line>
                <path d="M76.8526897,220.895632 C76.8526897,235.632184 64.906023,247.57977 50.1685517,247.57977 C35.432,247.57977 23.4853333,235.632184 23.4853333,220.895632 C23.4853333,206.158161 35.432,194.210575 50.1685517,194.210575 C64.906023,194.210575 76.8526897,206.158161 76.8526897,220.895632 Z" id="Stroke-60"></path>
                <line x1="50.1690115" y1="278.230437" x2="50.1690115" y2="220.299402" id="Stroke-61"></line>
                <line x1="50.1690115" y1="233.862621" x2="41.8931494" y2="225.586759" id="Stroke-62"></line>
                <line x1="50.1690115" y1="246.046529" x2="60.283954" y2="235.931586" id="Stroke-63"></line>
                <path d="M582.544184,220.895632 C582.544184,235.632184 570.597517,247.57977 555.860046,247.57977 C541.122575,247.57977 529.175908,235.632184 529.175908,220.895632 C529.175908,206.158161 541.122575,194.210575 555.860046,194.210575 C570.597517,194.210575 582.544184,206.158161 582.544184,220.895632 Z" id="Stroke-64"></path>
                <line x1="555.860414" y1="278.230437" x2="555.860414" y2="220.299402" id="Stroke-65"></line>
                <line x1="555.860414" y1="233.862621" x2="547.584552" y2="225.586759" id="Stroke-66"></line>
                <line x1="555.860414" y1="246.046529" x2="565.975356" y2="235.931586" id="Stroke-67"></line>
                <polygon id="Stroke-68" points="663.885977 191.222989 758.075402 191.222989 758.075402 156.470805 663.885977 156.470805"></polygon>
                <polygon id="Stroke-69" points="674.153563 156.470805 747.807816 156.470805 747.807816 126.278621 674.153563 126.278621"></polygon>
                <polygon id="Stroke-70" points="682.237241 149.574253 689.523678 149.574253 689.523678 133.175172 682.237241 133.175172"></polygon>
                <polygon id="Stroke-71" points="707.277241 149.574253 714.563678 149.574253 714.563678 133.175172 707.277241 133.175172"></polygon>
                <polygon id="Stroke-72" points="732.438621 149.574253 739.725057 149.574253 739.725057 133.175172 732.438621 133.175172"></polygon>
                <polygon id="Stroke-73" points="771.490851 199.405885 710.980506 166.278529 650.472 199.405885 650.472 277.542897 771.490851 277.542897"></polygon>
                <polygon id="Stroke-74" points="747.808184 205.367632 710.980598 185.588322 674.153931 205.367632 674.153931 277.542345 747.808184 277.542345"></polygon>
                <polygon id="Stroke-75" points="771.490575 277.542989 820.533333 277.542989 820.533333 97.1972414 771.490575 97.1972414"></polygon>
                <polygon id="Stroke-76" points="769.06023 97.1972414 822.964598 97.1972414 822.964598 89.3443678 769.06023 89.3443678"></polygon>
                <polygon id="Stroke-77" points="782.507586 134.401839 809.517241 134.401839 809.517241 106.733793 782.507586 106.733793"></polygon>
                <path d="M796.01223,70.8893793 C785.981885,70.8893793 777.85131,79.0208736 777.85131,89.0502989 L814.173149,89.0502989 C814.173149,79.0208736 806.041655,70.8893793 796.01223,70.8893793 Z" id="Stroke-78"></path>
                <line x1="796.019402" y1="70.8893793" x2="796.019402" y2="52.8057011" id="Stroke-79"></line>
                <line x1="796.019402" y1="259.841471" x2="796.019402" y2="241.757793" id="Stroke-80"></line>
                <line x1="796.019402" y1="231.335724" x2="796.019402" y2="213.252046" id="Stroke-81"></line>
                <line x1="796.019402" y1="205.588598" x2="796.019402" y2="134.401471" id="Stroke-82"></line>
                <line x1="791.339034" y1="57.8946207" x2="800.608" y2="57.8946207" id="Stroke-83"></line>
                <polygon id="Stroke-84" points="601.428966 277.542989 650.471724 277.542989 650.471724 97.1972414 601.428966 97.1972414"></polygon>
                <polygon id="Stroke-85" points="598.997701 97.1972414 652.902069 97.1972414 652.902069 89.3443678 598.997701 89.3443678"></polygon>
                <polygon id="Stroke-86" points="612.445057 134.401839 639.454713 134.401839 639.454713 106.733793 612.445057 106.733793"></polygon>
                <path d="M625.950253,70.8893793 C615.919908,70.8893793 607.789333,79.0208736 607.789333,89.0502989 L644.111172,89.0502989 C644.111172,79.0208736 635.979678,70.8893793 625.950253,70.8893793 Z" id="Stroke-87"></path>
                <line x1="625.957425" y1="70.8893793" x2="625.957425" y2="52.8057011" id="Stroke-88"></line>
                <line x1="625.957425" y1="259.841471" x2="625.957425" y2="241.757793" id="Stroke-89"></line>
                <line x1="625.957425" y1="231.335724" x2="625.957425" y2="213.252046" id="Stroke-90"></line>
                <line x1="625.957425" y1="205.588598" x2="625.957425" y2="134.401471" id="Stroke-91"></line>
                <line x1="621.277149" y1="57.8946207" x2="630.546115" y2="57.8946207" id="Stroke-92"></line>
                <path d="M710.980782,97.1358161 C695.105839,97.1358161 682.236874,110.005701 682.236874,125.880644 L739.725609,125.880644 C739.725609,110.005701 726.856644,97.1358161 710.980782,97.1358161 Z" id="Stroke-93"></path>
                <line x1="710.99246" y1="94.282023" x2="710.99246" y2="65.6585747" id="Stroke-94"></line>
                <line x1="703.58492" y1="73.7135632" x2="718.256184" y2="73.7135632" id="Stroke-95"></line>
                <path d="M710.980782,204.613333 C699.227218,204.613333 689.697103,215.497011 689.697103,228.923218 L689.697103,277.542989 L732.26446,277.542989 L732.26446,228.923218 C732.26446,215.497011 722.735264,204.613333 710.980782,204.613333 Z" id="Stroke-96"></path>
                <polygon id="Stroke-97" points="747.807816 277.542989 771.409655 277.542989 771.409655 213.252414 747.807816 213.252414"></polygon>
                <polygon id="Stroke-98" points="650.552644 277.542989 674.154483 277.542989 674.154483 213.252414 650.552644 213.252414"></polygon>
                <path d="M714.741517,97.0908506 C714.741517,99.1028046 713.110253,100.734069 711.098299,100.734069 C709.086345,100.734069 707.45508,99.1028046 707.45508,97.0908506 C707.45508,95.0788966 709.086345,93.4476322 711.098299,93.4476322 C713.110253,93.4476322 714.741517,95.0788966 714.741517,97.0908506 Z" id="Stroke-99"></path>
                <polygon id="Stroke-100" points="650.471724 277.542989 674.154483 277.542989 674.154483 263.749885 650.471724 263.749885"></polygon>
                <polygon id="Stroke-101" points="747.767356 277.542989 771.450115 277.542989 771.450115 263.749885 747.767356 263.749885"></polygon>
                <path d="M370.133977,104.056552 C384.882483,104.056552 396.838345,92.1006897 396.838345,77.3531034 C396.838345,62.6045977 384.882483,50.6487356 370.133977,50.6487356" id="Stroke-102"></path>
                <path d="M232.980598,78.2098391 C232.980598,63.4613333 221.025655,51.5054713 206.277149,51.5054713 C191.528644,51.5054713 179.572782,63.4613333 179.572782,78.2098391" id="Stroke-103"></path>
                <polygon id="Stroke-104" points="457.696828 148.808736 474.499586 125.88 440.893149 125.88"></polygon>
                <polygon id="Stroke-105" points="474.499954 171.736184 491.302713 148.808368 457.697195 148.808368"></polygon>
                <polygon id="Stroke-106" points="440.892782 171.736184 457.69646 148.808368 424.090023 148.808368"></polygon>
                <polygon id="Stroke-107" points="457.696828 194.664552 440.893149 217.593287 474.499586 217.593287"></polygon>
                <polygon id="Stroke-108" points="440.892782 171.736184 424.090023 194.66492 457.69646 194.66492"></polygon>
                <polygon id="Stroke-109" points="474.499954 171.736184 457.697195 194.66492 491.302713 194.66492"></polygon>
                <polygon id="Stroke-110" points="457.696828 161.506299 465.193839 171.736184 457.696828 181.966989 450.199816 171.736184"></polygon>
                <polygon id="Stroke-111" points="705.041471 28.6031264 729.220782 28.6031264 729.220782 0.683126437"></polygon>
                <polygon id="Stroke-112" points="220.737471 28.6031264 196.558161 28.6031264 196.558161 0.683126437"></polygon>
                <path d="M467.19669,14.3789425 C467.19669,17.5164138 464.653241,20.0607816 461.51577,20.0607816 C458.378299,20.0607816 455.834851,17.5164138 455.834851,14.3789425 C455.834851,11.2414713 458.378299,8.69802299 461.51577,8.69802299 C464.653241,8.69802299 467.19669,11.2414713 467.19669,14.3789425 Z" id="Stroke-113"></path>
                <line x1="240.128552" y1="14.9204598" x2="422.079816" y2="14.9204598" id="Stroke-114"></line>
                <line x1="71.5743448" y1="78.0616092" x2="370.135264" y2="78.0616092" id="Stroke-115"></line>
                <line x1="500.951172" y1="14.9204598" x2="685.650943" y2="14.9204598" id="Stroke-116"></line>
                <line x1="822.964414" y1="89.343908" x2="922.806253" y2="89.343908" id="Stroke-117"></line>
                <line x1="728.18354" y1="28.6031264" x2="922.806069" y2="28.6031264" id="Stroke-118"></line>
                <path d="M903.55531,190.937011 C903.55531,192.948966 901.924966,194.58023 899.912092,194.58023 C897.900138,194.58023 896.268874,192.948966 896.268874,190.937011 C896.268874,188.925057 897.900138,187.293793 899.912092,187.293793 C901.924966,187.293793 903.55531,188.925057 903.55531,190.937011 Z" id="Stroke-119"></path>
                <line x1="872.862069" y1="180.53646" x2="872.862069" y2="277.542437" id="Stroke-120"></line>
                <path d="M899.912184,180.53646 C899.912184,173.188414 893.857011,167.230713 886.386667,167.230713 C878.917241,167.230713 872.862069,173.188414 872.862069,180.53646" id="Stroke-121"></path>
                <path d="M899.912184,180.53646 C894.676322,180.53646 890.430805,184.781057 890.430805,190.017839 L909.393563,190.017839 C909.393563,184.781057 905.148046,180.53646 899.912184,180.53646 Z" id="Stroke-122"></path>
                <path d="M842.167908,190.937011 C842.167908,192.948966 843.799172,194.58023 845.811126,194.58023 C847.82308,194.58023 849.454345,192.948966 849.454345,190.937011 C849.454345,188.925057 847.82308,187.293793 845.811126,187.293793 C843.799172,187.293793 842.167908,188.925057 842.167908,190.937011 Z" id="Stroke-123"></path>
                <path d="M845.811034,180.53646 C845.811034,173.188414 851.867126,167.230713 859.336552,167.230713 C866.805977,167.230713 872.862069,173.188414 872.862069,180.53646" id="Stroke-124"></path>
                <path d="M845.811034,180.53646 C851.046897,180.53646 855.292414,184.781057 855.292414,190.017839 L836.330575,190.017839 C836.330575,184.781057 840.575172,180.53646 845.811034,180.53646 Z" id="Stroke-125"></path>
                <path d="M879.988506,251.834023 L865.735632,251.834023 C863.964598,251.834023 862.517241,250.385747 862.517241,248.615632 C862.517241,246.845517 863.964598,245.397241 865.735632,245.397241 L879.988506,245.397241 C881.758621,245.397241 883.206897,246.845517 883.206897,248.615632 C883.206897,250.385747 881.758621,251.834023 879.988506,251.834023 Z" id="Stroke-126"></path>
                <path d="M879.988506,277.693425 L865.735632,277.693425 C863.964598,277.693425 862.517241,276.245149 862.517241,274.475034 L862.517241,268.061241 C862.517241,266.292046 863.964598,264.842851 865.735632,264.842851 L879.988506,264.842851 C881.758621,264.842851 883.206897,266.292046 883.206897,268.061241 L883.206897,274.475034 C883.206897,276.245149 881.758621,277.693425 879.988506,277.693425 Z" id="Stroke-127"></path>
                <polygon id="Stroke-128" points="865.969655 264.843218 879.754483 264.843218 879.754483 252.60046 865.969655 252.60046"></polygon>
            </g>
        </g>
    </g>
</svg>