<?xml version="1.0" encoding="UTF-8"?>
<svg width="512px" height="512px" viewBox="0 0 512 512" version="1.1" xmlns="http://www.w3.org/2000/svg" xmlns:xlink="http://www.w3.org/1999/xlink">
    <title>0A57BD43-AF7A-443A-8DDF-8138A8CFC0CE</title>
    <g id="dgn" stroke="none" stroke-width="1" fill="none" fill-rule="evenodd">
        <g id="itfn-favicon">
            <rect id="base" fill="#14163A" x="0" y="0" width="512" height="512"></rect>
            <g id="&lt;itfn/&gt;" transform="translate(52.000000, 156.000000)" fill="#FFFFFF" fill-rule="nonzero">
                <path d="M21.19392,41.1113472 C32.3824512,41.1113472 41.4893952,31.7442048 41.4893952,20.2954752 C41.4893952,9.6273408 32.3824512,1.8189894e-12 21.19392,1.8189894e-12 C9.484992,1.8189894e-12 0.378048,9.6273408 0.378048,20.2954752 C0.378048,31.7442048 9.484992,41.1113472 21.19392,41.1113472 Z M39.9282048,194.108006 L39.9282048,59.5854336 L1.9392384,59.5854336 L1.9392384,194.108006 L39.9282048,194.108006 Z M121.890701,197.230387 C132.819034,197.230387 145.048358,192.546816 152.85431,185.521459 L143.747366,160.802611 C141.145382,163.404595 135.941414,165.225984 130.737446,165.225984 C123.71209,165.225984 117.987725,158.981222 117.987725,150.134477 L117.987725,90.2888448 L147.129946,90.2888448 L147.129946,59.5854336 L117.987725,59.5854336 L117.987725,22.6372608 L81.5599488,22.6372608 L81.5599488,59.5854336 L63.0858624,59.5854336 L63.0858624,90.2888448 L81.5599488,90.2888448 L81.5599488,156.11904 C81.5599488,180.317491 98.2126464,197.230387 121.890701,197.230387 Z" id="&lt;it"></path>
                <path d="M228.305088,197.091206 L228.305088,93.2720448 L257.447309,93.2720448 L257.447309,62.5686336 L228.305088,62.5686336 L228.305088,55.2830784 C228.305088,46.4363328 234.029453,40.1915712 241.05481,40.1915712 C246.258778,40.1915712 251.462746,42.01296 254.06473,44.614944 L263.171674,21.4572864 C255.365722,14.4319296 243.136397,9.7483584 232.208064,9.7483584 C208.53001,9.7483584 191.877312,26.6612544 191.877312,50.8597056 L191.877312,62.5686336 L173.403226,62.5686336 L173.403226,93.2720448 L191.877312,93.2720448 L191.877312,197.091206 L228.305088,197.091206 Z M319.11433,197.091206 L319.11433,116.689901 L319.374528,117.470496 C319.374528,102.899386 331.603853,91.450656 347.475955,91.450656 C362.567462,91.450656 372.975398,102.899386 372.975398,119.552083 L372.975398,197.091206 L409.663373,197.091206 L409.663373,111.485933 C409.663373,81.04272 388.847501,59.4462528 359.70528,59.4462528 C342.271987,59.4462528 327.18048,67.2522048 319.11433,79.4815296 L319.11433,62.5686336 L281.125363,62.5686336 L281.125363,197.091206 L319.11433,197.091206 Z" id="fn/&gt;"></path>
            </g>
        </g>
    </g>
</svg>