<?xml version="1.0" encoding="UTF-8"?>
<svg width="1159px" height="536px" viewBox="0 0 1159 536" version="1.1" xmlns="http://www.w3.org/2000/svg" xmlns:xlink="http://www.w3.org/1999/xlink">
    <title>BBAC14F2-34BE-4DC7-83FB-8A6EF532A8DA</title>
    <g id="dgn" stroke="none" stroke-width="1" fill="none" fill-rule="evenodd" opacity="0.149999991">
        <g id="itfn-technology" transform="translate(-281.000000, 0.000000)" fill="#5D6BF6">
            <g id="symbols" transform="translate(860.500000, 268.000000) scale(1, -1) translate(-860.500000, -268.000000) translate(281.000000, 0.000000)">
                <path d="M0.66564,255.54798 L0.66564,183.14118 L62.80464,146.94498 L124.94364,183.14118 L124.94364,255.54798 L66.07644,289.83858 C65.35764,288.79698 64.16304,288.11118 62.80464,288.11118 C61.44684,288.11118 60.25224,288.79698 59.53344,289.83858 L0.66564,255.54798 Z M125.44164,256.03218 L125.60964,255.92898 L125.60964,182.76018 L62.97264,146.27118 L62.80464,146.16798 L0.16764,182.65818 L0.00024,182.76018 L0.00024,255.92898 L59.20344,290.41758 C58.96044,290.93658 58.82064,291.51438 58.82064,292.12518 C58.82064,294.35298 60.60024,296.15418 62.80464,296.15418 C65.00964,296.15418 66.78864,294.35298 66.78864,292.12518 C66.78864,291.51618 66.65004,290.94018 66.40824,290.42238 L125.44164,256.03218 Z" id="Fill-1"></path>
                <path d="M62.80488,201.54036 L78.09168,210.44556 L78.09168,228.24336 L62.80488,237.15036 L47.51988,228.24336 L47.51988,214.25256 C49.56288,214.08216 51.17388,212.35476 51.17388,210.24036 C51.17388,209.63196 51.03468,209.05656 50.79228,208.53936 L62.80488,201.54036 Z M62.80488,237.92616 L78.58908,228.72816 L78.75708,228.63936 L78.75708,210.05016 L62.80488,200.76336 L50.46168,207.95736 C49.74228,206.91396 48.54468,206.22756 47.18988,206.22756 C44.98488,206.22756 43.19808,208.02936 43.19808,210.24036 C43.19808,212.35296 44.80548,214.07856 46.85208,214.25256 L46.85208,228.63936 L62.80488,237.92616 Z" id="Fill-3"></path>
                <path d="M297.4137,64.8693 L309.4227,57.8697 C310.1427,58.9137 311.3385,59.5965 312.6927,59.5965 C314.0547,59.5965 315.2493,58.9137 315.9663,57.8703 L327.9855,64.8693 L327.9855,82.6743 L312.6927,91.5813 L297.4137,82.6743 L297.4137,64.8693 Z M328.4829,83.1663 L328.6455,83.0625 L328.6455,64.4811 L316.2969,57.2865 C316.5381,56.7675 316.6767,56.1885 316.6767,55.5753 C316.6767,53.3553 314.9037,51.5541 312.6927,51.5541 C310.4955,51.5541 308.7087,53.3553 308.7087,55.5753 C308.7087,56.1891 308.8485,56.7675 309.0909,57.2871 L296.9157,64.3863 L296.7399,64.4811 L296.7399,83.0625 L312.6927,92.3571 L328.4829,83.1663 Z" id="Fill-5"></path>
                <path d="M531.6867,55.77318 L562.5945,37.77018 L593.4879,55.77318 L593.4879,91.77198 L562.5945,109.78218 L531.6867,91.77198 L531.6867,55.77318 Z M593.9865,92.26218 L594.1617,92.16078 L594.1617,55.38498 L562.5945,36.99318 L531.1887,55.29018 L531.0279,55.38498 L531.0279,92.16078 L562.5945,110.55798 L593.9865,92.26218 Z" id="Fill-7"></path>
                <path d="M562.59432,528.30192 L547.63152,519.58872 L562.59432,510.87012 L577.54752,519.58632 L562.59432,528.30192 Z M547.30152,505.39032 C549.35472,505.21812 550.96512,503.49072 550.96512,501.39312 C550.96512,500.77752 550.82412,500.19612 550.57992,499.67472 L562.59432,492.67692 L577.87332,501.58392 L577.87332,519.00012 L562.59432,510.09492 L547.30152,519.00492 L547.30152,505.39032 Z M578.53152,501.20292 L562.59432,491.90172 L550.25232,499.09872 C549.53052,498.05112 548.32932,497.36412 546.96552,497.36412 C544.76832,497.36412 542.98032,499.16592 542.98032,501.39312 C542.98032,503.49492 544.59612,505.22412 546.64332,505.39092 L546.64332,519.38892 L520.58352,534.57192 L521.91552,534.57192 L546.97512,519.97092 L562.59432,529.07892 L578.20452,519.96852 L603.25932,534.57192 L604.59132,534.57192 L578.53152,519.38352 L578.53152,501.20292 Z" id="Fill-9"></path>
                <path d="M656.62326,55.77318 L684.26106,39.67458 C684.98226,40.71858 686.17806,41.40318 687.53106,41.40318 C688.89246,41.40318 690.08586,40.71918 690.80406,39.67698 L718.44006,55.77318 L718.44006,91.77198 L687.53106,109.78218 L656.62326,91.77198 L656.62326,55.77318 Z M718.93746,92.26218 L719.09826,92.16078 L719.09826,55.38498 L691.13526,39.09318 C691.37706,38.57298 691.51626,37.99458 691.51626,37.38198 C691.51626,35.16318 689.74326,33.36078 687.53106,33.36078 C685.33506,33.36078 683.54706,35.16318 683.54706,37.38198 C683.54706,37.99398 683.68686,38.57238 683.92986,39.09198 L656.14026,55.29018 L655.96506,55.38498 L655.96506,92.16078 L687.53106,110.55798 L718.93746,92.26218 Z" id="Fill-12"></path>
                <path d="M562.59432,55.96362 L577.87332,64.86942 L577.87332,82.67442 L562.59432,91.58142 L550.58112,84.58422 C550.82472,84.06402 550.96512,83.48502 550.96512,82.87242 C550.96512,80.76762 549.35472,79.04142 547.30152,78.86922 L547.30152,64.86942 L562.59432,55.96362 Z M562.59432,92.35662 L578.37132,83.16642 L578.53152,83.06262 L578.53152,64.48062 L562.59432,55.18662 L546.80412,64.38642 L546.64332,64.48062 L546.64332,78.86862 C544.59612,79.03542 542.98032,80.76342 542.98032,82.87242 C542.98032,85.09242 544.76832,86.89362 546.96552,86.89362 C548.32812,86.89362 549.52812,86.20842 550.24992,85.16442 L562.59432,92.35662 Z" id="Fill-14"></path>
                <path d="M547.30164,210.44574 L559.31604,203.44914 C560.03904,204.49014 561.23544,205.17174 562.59444,205.17174 C563.94624,205.17174 565.14144,204.48834 565.86264,203.44554 L577.87344,210.44574 L577.87344,228.24354 L562.59444,237.14994 L547.30164,228.24354 L547.30164,210.44574 Z M546.64344,210.04974 L546.64344,228.63954 L562.59444,237.92574 L578.37144,228.72774 L578.53164,228.63954 L578.53164,210.04974 L566.19504,202.86174 C566.43924,202.34034 566.57964,201.75954 566.57964,201.14454 C566.57964,198.93174 564.79164,197.13054 562.59444,197.13054 C560.38344,197.13054 558.59544,198.93174 558.59544,201.14454 C558.59544,201.76194 558.73704,202.34454 558.98304,202.86714 L546.80364,209.96274 L546.64344,210.04974 Z" id="Fill-16"></path>
                <polygon id="Fill-18" points="1146.64338 534.57174 1158.43518 527.70174 1158.43518 526.92474 1145.31018 534.57174"></polygon>
                <path d="M1003.50852,111.882 C1003.75332,111.36 1003.89432,110.7792 1003.89432,110.1636 C1003.89432,108.0642 1002.28392,106.3386 1000.23132,106.1664 L1000.23132,37.572 L1062.37032,1.3758 L1124.50932,37.572 L1124.50932,109.9728 L1062.37032,146.1678 L1003.50852,111.882 Z M1124.18532,182.9526 L1065.64752,217.056 C1064.93112,216.0108 1063.73532,215.3238 1062.37032,215.3238 C1061.01792,215.3238 1059.82332,216.0072 1059.10272,217.0476 L1003.51032,184.6662 C1003.75392,184.1448 1003.89432,183.5652 1003.89432,182.9508 C1003.89432,182.3352 1003.75332,181.7538 1003.50852,181.2324 L1062.37032,146.9448 L1124.18532,182.9526 Z M1124.50932,251.7282 C1122.47052,251.901 1120.86132,253.6272 1120.86132,255.7386 C1120.86132,256.3524 1121.00112,256.9308 1121.24412,257.4498 L1065.64332,289.8378 C1064.98572,288.8832 1063.92852,288.2316 1062.70812,288.1284 L1062.70812,223.3482 C1064.75952,223.1754 1066.35432,221.4492 1066.35432,219.3378 C1066.35432,218.73 1066.21632,218.1546 1065.97632,217.638 L1124.50932,183.54 L1124.50932,251.7282 Z M1077.97932,501.0024 L1065.97332,494.0022 C1066.21512,493.4832 1066.35432,492.9066 1066.35432,492.2958 C1066.35432,490.1844 1064.75952,488.4582 1062.70812,488.2854 L1062.70812,368.9244 C1063.92792,368.8218 1064.98452,368.1708 1065.64212,367.2144 L1121.24352,399.603 C1121.00112,400.1226 1120.86132,400.7016 1120.86132,401.3148 C1120.86132,403.413 1122.47052,405.1386 1124.50932,405.3114 L1124.50932,470.0922 C1122.47052,470.265 1120.86132,471.9906 1120.86132,474.0888 C1120.86132,474.702 1121.00112,475.281 1121.24352,475.8006 L1077.97932,501.0024 Z M1077.66252,519.0048 L1063.03572,510.4824 L1077.66252,501.9618 L1077.66252,519.0048 Z M1065.64932,526.3926 C1064.93232,525.3432 1063.73592,524.6556 1062.37032,524.6556 C1061.01312,524.6556 1059.81492,525.3438 1059.09492,526.3932 L1047.41412,519.5844 L1062.37032,510.87 L1077.33312,519.5886 L1065.64932,526.3926 Z M1047.09132,501.9708 L1061.70492,510.4824 L1047.09132,518.9964 L1047.09132,501.9708 Z M1000.23132,401.5116 L1059.10152,367.2132 C1059.76392,368.1732 1060.82892,368.826 1062.04752,368.9256 L1062.04752,488.2848 C1060.00092,488.451 1058.38632,490.1802 1058.38632,492.2958 C1058.38632,492.906 1058.52612,493.4826 1058.76912,494.001 L1046.76132,501.0024 L1000.23132,473.898 L1000.23132,401.5116 Z M938.10492,437.7072 L999.57252,401.895 L999.57252,473.5146 L938.10492,437.7072 Z M875.28012,470.0916 L875.28012,401.8854 L936.76812,437.7084 L878.23272,471.8082 C877.57032,470.8458 876.50232,470.1906 875.28012,470.0916 L875.28012,470.0916 Z M815.75112,508.191 C815.03112,507.1458 813.83532,506.4618 812.48232,506.4618 C811.12932,506.4618 809.93352,507.1464 809.21352,508.191 L750.34332,473.898 L750.34332,405.3114 C751.55952,405.2088 752.62092,404.5542 753.28092,403.5966 L777.63912,417.7884 C777.39432,418.3104 777.25332,418.8918 777.25332,419.508 C777.25332,421.6068 778.86132,423.333 780.91512,423.5052 L780.91512,456.0858 L812.48232,474.483 L843.88932,456.1878 L844.05012,456.0858 L844.05012,419.7066 L874.62132,401.895 L874.62132,470.0922 C872.56812,470.2644 870.96012,471.9906 870.96012,474.0888 C870.96012,474.7044 871.10052,475.2852 871.34532,475.8066 L815.75112,508.191 Z M702.82512,519.396 L687.53112,528.3018 L675.51852,521.2998 C675.76152,520.7796 675.90132,520.2006 675.90132,519.5868 C675.90132,518.9754 675.76212,518.3976 675.52152,517.8792 L687.70812,510.783 L687.86832,510.6798 L687.86832,510.6738 L702.82512,501.9606 L702.82512,519.396 Z M686.88012,510.4914 L675.19332,517.2972 C674.53332,516.3348 673.47072,515.679 672.25332,515.5752 L672.25332,501.9714 L686.88012,510.4914 Z M566.19732,439.4142 C566.44032,438.894 566.58012,438.315 566.58012,437.7018 C566.58012,437.091 566.44152,436.5144 566.20092,435.996 L621.78552,403.6014 C622.44792,404.5602 623.51352,405.213 624.73332,405.3126 L624.73332,473.514 L566.19732,439.4142 Z M500.11692,473.709 L438.31512,437.7066 L496.84212,403.5972 C497.55912,404.6424 498.75432,405.3288 500.11932,405.3288 C501.47112,405.3288 502.66572,404.6454 503.38632,403.6056 L558.97752,435.99 C558.73452,436.5096 558.59532,437.0886 558.59532,437.7018 C558.59532,438.3192 558.73692,438.9018 558.98292,439.4244 L500.11692,473.709 Z M468.55152,492.4866 L468.55152,528.105 L453.59532,519.3936 L453.59532,501.2028 L437.98032,492.0972 L437.98032,474.6792 L468.55152,492.4866 Z M437.98032,528.1062 L437.98032,514.4862 C439.19292,514.3836 440.25132,513.7326 440.91132,512.7798 L452.60352,519.5904 L437.98032,528.1062 Z M425.62812,521.3052 C425.87232,520.7832 426.01332,520.2024 426.01332,519.5868 C426.01332,518.973 425.87352,518.3946 425.63112,517.8744 L434.37672,512.7804 C435.03672,513.7326 436.09512,514.383 437.30712,514.4862 L437.30712,528.1056 L425.62812,521.3052 Z M409.68432,526.3872 C409.02192,525.4248 407.95572,524.7708 406.73532,524.6718 L406.73532,492.873 L421.69152,501.585 L421.69152,515.5752 C419.65212,515.7486 418.04352,517.4748 418.04352,519.5868 C418.04352,520.1988 418.18332,520.7772 418.42512,521.2962 L409.68432,526.3872 Z M250.89252,474.0954 L309.42492,440.0016 C310.14492,441.045 311.34012,441.7296 312.69252,441.7296 C314.05332,441.7296 315.24552,441.0456 315.96312,440.0028 L374.49492,474.0942 L312.69252,510.0948 L250.89252,474.0954 Z M125.60952,470.0916 L125.60952,405.312 C127.65312,405.1422 129.26532,403.4154 129.26532,401.3148 C129.26532,400.7004 129.12492,400.1202 128.88192,399.5994 L187.41852,365.5008 L187.41852,401.1108 L156.34932,419.2158 L156.18132,419.3178 L156.18132,456.0858 L187.41852,474.291 L187.41852,509.9028 L128.88192,475.8042 C129.12492,475.2828 129.26532,474.7032 129.26532,474.0888 C129.26532,471.9888 127.65312,470.2614 125.60952,470.0916 L125.60952,470.0916 Z M281.79852,277.944 C283.01352,277.8408 284.07432,277.1868 284.73432,276.2268 L312.03372,292.1286 L281.79852,309.741 L281.79852,277.944 Z M203.70132,228.2448 L203.70132,210.0498 L188.08632,200.9598 L188.08632,146.748 L246.95232,112.4604 C247.67112,113.5056 248.86632,114.1908 250.22352,114.1908 C252.42912,114.1908 254.20932,112.3896 254.20932,110.1636 C254.20932,108.0624 252.60312,106.3356 250.55412,106.1664 L250.55412,37.5756 L312.69252,1.3758 L437.30712,73.9668 L437.30712,146.3646 L375.00732,182.658 L374.84532,182.7606 L374.84532,255.5358 L347.20572,271.638 C346.48452,270.594 345.28992,269.9046 343.93752,269.9046 C342.57552,269.9046 341.37612,270.5946 340.65492,271.6398 L312.69252,255.3438 L284.73132,271.6398 C284.01072,270.5946 282.81492,269.9046 281.46252,269.9046 C280.10832,269.9046 278.91072,270.5958 278.19072,271.6434 L203.70132,228.2448 Z M187.74852,237.15 L172.46352,228.2436 L172.46352,210.4458 L187.41852,201.7326 L187.41852,215.3406 C185.37552,215.511 183.76512,217.2378 183.76512,219.3378 C183.76512,221.5638 185.55132,223.3656 187.74852,223.3656 C189.10452,223.3656 190.30032,222.6828 191.02152,221.6406 L202.69572,228.4404 L187.74852,237.15 Z M203.03352,227.856 L191.35692,221.0526 C191.59992,220.5318 191.74032,219.9522 191.74032,219.3378 C191.74032,217.2396 190.13292,215.514 188.08632,215.3412 L188.08632,201.7368 L203.03352,210.4458 L203.03352,227.856 Z M125.60952,109.9728 L125.60952,41.3868 C127.65312,41.2164 129.26532,39.4896 129.26532,37.3818 C129.26532,36.768 129.12432,36.1884 128.88012,35.6676 L187.74852,1.3758 L249.56172,37.3782 L191.02632,71.4792 C190.30572,70.4328 189.10752,69.747 187.74852,69.747 C185.55132,69.747 183.76512,71.5488 183.76512,73.776 C183.76512,75.882 185.37552,77.6094 187.41852,77.7798 L187.41852,145.9758 L125.60952,109.9728 Z M249.89532,106.1664 C247.84632,106.335 246.24012,108.0624 246.24012,110.1636 C246.24012,110.778 246.37992,111.3576 246.62232,111.879 L188.08632,145.971 L188.08632,77.7792 C190.13292,77.6064 191.74032,75.8802 191.74032,73.776 C191.74032,73.1616 191.60052,72.582 191.35752,72.0612 L249.89532,37.959 L249.89532,106.1664 Z M499.78212,183.1416 L499.78212,255.5478 L468.88092,273.5484 L441.24792,257.4444 C441.48912,256.9266 441.62832,256.35 441.62832,255.7386 C441.62832,255.1236 441.48792,254.5446 441.24492,254.0232 L469.05012,237.8388 L469.21152,237.7356 L469.21152,200.9538 L437.98032,182.7654 L437.98032,147.1404 L499.78212,183.1416 Z M468.55152,306.321 C467.32872,306.4206 466.26072,307.077 465.59892,308.0394 L438.30252,292.1376 L468.55152,274.5162 L468.55152,306.321 Z M499.45032,328.5246 L437.64252,364.527 L375.83532,328.5252 L406.40772,310.7172 L437.64432,328.908 L465.60552,312.618 C466.32612,313.6632 467.52132,314.3478 468.87432,314.3478 C470.23392,314.3478 471.43092,313.665 472.15332,312.6234 L499.45032,328.5246 Z M687.20952,292.7082 L687.20952,360.9018 C685.99032,361.0014 684.92412,361.6596 684.26112,362.6226 L628.66812,330.2406 C628.91352,329.7198 629.05512,329.1402 629.05512,328.5276 C629.05512,327.9114 628.91412,327.3306 628.66992,326.8092 L687.20952,292.7082 Z M672.25332,228.2436 L672.25332,210.4458 L687.53112,201.5406 L702.48912,210.2502 L690.80892,217.0554 C690.09132,216.0108 688.89552,215.3238 687.53112,215.3238 C685.33452,215.3238 683.54652,217.125 683.54652,219.3378 C683.54652,221.454 685.16352,223.1832 687.20952,223.3488 L687.20952,236.9634 L672.25332,228.2436 Z M753.60912,111.8754 C753.85152,111.3552 753.99132,110.7768 753.99132,110.1636 C753.99132,108.0654 752.38332,106.3392 750.34332,106.1664 L750.34332,37.572 L812.48232,1.3758 L874.62132,37.572 L874.62132,109.9728 L812.48232,146.1678 L753.60912,111.8754 Z M871.35192,181.2408 C871.11132,181.7604 870.97332,182.3388 870.97332,182.9508 C870.97332,183.5652 871.11252,184.1448 871.35432,184.6662 L828.10992,209.8608 L816.08292,202.8594 C816.32592,202.3386 816.46632,201.759 816.46632,201.1446 C816.46632,198.9318 814.68012,197.1306 812.48232,197.1306 C810.28512,197.1306 808.49832,198.9318 808.49832,201.1446 C808.49832,201.759 808.63872,202.3398 808.88232,202.8606 L796.69152,209.9628 L796.53012,210.0498 L796.53012,224.4372 C794.47812,224.6094 792.88332,226.3374 792.88332,228.4488 C792.88332,229.0584 793.02192,229.635 793.26312,230.1528 L749.84532,255.4458 L749.67012,255.5478 L749.67012,327.9444 L687.86832,291.9414 L687.86832,237.729 L699.87612,230.7354 C700.59672,231.7776 701.79372,232.4628 703.14732,232.4628 C705.35832,232.4628 707.14632,230.6616 707.14632,228.4488 C707.14632,226.3368 705.53592,224.6088 703.48332,224.4372 L703.48332,210.4446 L812.48232,146.9448 L871.35192,181.2408 Z M1062.04752,223.3488 L1062.04752,288.1278 C1060.82772,288.2268 1059.76212,288.8808 1059.10032,289.8396 L1000.23132,255.5478 L1000.23132,186.9612 C1001.45412,186.8586 1002.51792,186.2058 1003.17972,185.2464 L1058.76912,217.632 C1058.52612,218.1504 1058.38632,218.7276 1058.38632,219.3378 C1058.38632,221.4534 1060.00092,223.1826 1062.04752,223.3488 L1062.04752,223.3488 Z M1121.58012,399.0114 L1087.63692,379.2462 L1065.97452,366.627 C1066.21572,366.1068 1066.35432,365.5278 1066.35432,364.9146 C1066.35432,364.3026 1066.21452,363.723 1065.97152,363.2016 L1121.57412,330.8112 C1122.23352,331.7676 1123.29492,332.421 1124.50932,332.5242 L1124.50932,397.3044 C1123.29852,397.407 1122.24072,398.0574 1121.58012,399.0114 L1121.58012,399.0114 Z M812.48232,437.3208 L784.84932,421.2222 C785.09472,420.702 785.23632,420.1218 785.23632,419.508 C785.23632,418.893 785.09592,418.3122 784.85172,417.7902 L809.21172,403.6008 C809.93232,404.6436 811.12812,405.3288 812.48232,405.3288 C813.83652,405.3288 815.03292,404.6436 815.75292,403.6008 L843.06072,419.5068 L812.48232,437.3208 Z M781.57512,423.5058 C782.79432,423.4068 783.85872,422.7546 784.52052,421.797 L812.32152,437.9946 L812.48232,438.0978 L843.39132,420.09 L843.39132,455.7048 L812.48232,473.7078 L781.57512,455.7048 L781.57512,423.5058 Z M753.60912,399.603 L781.24572,383.5044 L808.88232,399.5988 C808.63812,400.1202 808.49832,400.7004 808.49832,401.3148 C808.49832,401.9238 808.63752,402.4998 808.87992,403.0176 L784.52112,417.2094 C783.80052,416.1642 782.60532,415.4796 781.25232,415.4796 C779.88852,415.4796 778.68792,416.166 777.96672,417.213 L753.60792,403.0218 C753.85092,402.5028 753.99132,401.9256 753.99132,401.3148 C753.99132,400.7016 753.85152,400.1226 753.60912,399.603 L753.60912,399.603 Z M691.13892,439.4082 C691.37892,438.8898 691.51632,438.3132 691.51632,437.7018 C691.51632,437.091 691.37892,436.5138 691.13892,435.9948 L746.73312,403.5954 C747.39252,404.5536 748.45392,405.2082 749.67012,405.3114 L749.67012,473.5062 L691.13892,439.4082 Z M687.86832,492.0978 L687.86832,441.7122 C689.08752,441.6096 690.14472,440.9586 690.80232,440.0034 L749.33172,474.0954 L703.13952,501.0024 L687.86832,492.0978 Z M687.86832,492.8736 L702.48372,501.3846 L687.86832,509.898 L687.86832,492.8736 Z M687.20952,492.864 L687.20952,509.9076 L672.58632,501.3894 L687.20952,492.864 Z M684.26292,440.001 C684.92592,440.9616 685.99152,441.6144 687.20952,441.7128 L687.20952,492.0882 L671.92272,501.003 L625.73232,474.0954 L684.26292,440.001 Z M683.93112,366.6306 L628.33872,399.0162 C627.67752,398.0592 626.61492,397.407 625.39332,397.3044 L625.39332,332.5242 C626.61492,332.4216 627.67812,331.7694 628.33932,330.8142 L683.93472,363.1956 C683.68872,363.7188 683.54652,364.3002 683.54652,364.9146 C683.54652,365.529 683.68692,366.1092 683.93112,366.6306 L683.93112,366.6306 Z M749.67012,397.3044 C748.45872,397.4076 747.40152,398.0574 746.74152,399.012 L710.11152,377.682 L691.13592,366.6276 C691.37772,366.1068 691.51632,365.5278 691.51632,364.9146 C691.51632,362.8158 689.92032,361.0764 687.86832,360.9024 L687.86832,292.7178 L749.67012,328.7178 L749.67012,397.3044 Z M687.86832,433.6902 L687.86832,368.9244 C689.08812,368.8218 690.14532,368.1708 690.80292,367.215 L746.40492,399.6036 C746.16252,400.1232 746.02332,400.7016 746.02332,401.3148 C746.02332,401.922 746.16192,402.4962 746.40312,403.0134 L690.80952,435.4098 C690.15252,434.4486 689.09232,433.7934 687.86832,433.6902 L687.86832,433.6902 Z M628.33752,403.605 L683.92932,435.9894 C683.68632,436.5096 683.54652,437.0886 683.54652,437.7018 C683.54652,438.3168 683.68692,438.897 683.93112,439.4178 L625.39332,473.5194 L625.39332,405.312 C626.61372,405.2094 627.67572,404.5578 628.33752,403.605 L628.33752,403.605 Z M687.20952,368.9256 L687.20952,433.689 C685.98672,433.7886 684.91812,434.4456 684.25572,435.4122 L628.67172,403.02 C628.91532,402.5016 629.05512,401.925 629.05512,401.3148 C629.05512,400.6992 628.91412,400.1184 628.66992,399.5964 L684.26232,367.2126 C684.92532,368.1738 685.99092,368.8266 687.20952,368.9256 L687.20952,368.9256 Z M780.91512,346.9152 L780.91512,382.9224 L753.28032,399.0216 C752.62032,398.0616 751.55892,397.4076 750.34332,397.3044 L750.34332,329.1096 L780.91512,346.9152 Z M796.86732,232.4628 C798.22032,232.4628 799.41492,231.7788 800.13492,230.7384 L812.14632,237.7302 L812.14632,328.3272 L781.23732,346.3332 L750.34332,328.3368 L750.34332,255.9288 L793.59312,230.7354 C794.31012,231.7776 795.50412,232.4628 796.86732,232.4628 L796.86732,232.4628 Z M827.76132,227.8656 L813.14652,219.3516 L827.76132,210.8376 L827.76132,227.8656 Z M937.75632,237.738 L949.77252,230.7318 C950.49012,231.7764 951.68532,232.4628 953.04852,232.4628 C955.24632,232.4628 957.03312,230.6616 957.03312,228.4488 C957.03312,226.3332 955.41792,224.6028 953.37132,224.4366 L953.37132,210.0498 L937.43352,200.7636 L925.08852,207.9558 C924.36672,206.913 923.16732,206.2278 921.80352,206.2278 C920.45112,206.2278 919.25652,206.9118 918.53592,207.9516 L878.55912,184.6662 C878.80272,184.1448 878.94252,183.5652 878.94252,182.9508 C878.94252,182.3388 878.80392,181.761 878.56212,181.242 L934.15392,148.8558 C934.87572,149.895 936.07272,150.5778 937.43352,150.5778 C938.78772,150.5778 939.98352,149.8926 940.70412,148.8498 L996.29412,181.2354 C996.04992,181.7562 995.91012,182.3364 995.91012,182.9508 C995.91012,185.067 997.52592,186.7956 999.57252,186.9618 L999.57252,255.5478 L937.75632,291.5568 L937.75632,237.738 Z M922.14132,214.2522 C923.36112,214.1496 924.42252,213.4992 925.08372,212.544 L937.09632,219.5418 L937.09632,236.9538 L922.14132,228.2436 L922.14132,214.2522 Z M952.71252,224.4372 C950.66112,224.6088 949.06512,226.3374 949.06512,228.4488 C949.06512,229.0572 949.20312,229.632 949.44312,230.1492 L937.75632,236.9622 L937.75632,219.147 L925.41732,211.9602 C925.66212,211.4382 925.80252,210.8568 925.80252,210.2406 C925.80252,209.631 925.66272,209.0544 925.42032,208.5366 L937.43352,201.5406 L952.71252,210.4458 L952.71252,224.4372 Z M875.28012,186.9618 C876.49992,186.8628 877.56612,186.2094 878.22912,185.247 L918.20292,208.5354 C917.95992,209.0538 917.82012,209.6304 917.82012,210.2406 C917.82012,212.3574 919.43412,214.0866 921.48132,214.2528 L921.48132,228.6396 L937.09632,237.7296 L937.09632,291.5478 L875.28012,255.5478 L875.28012,186.9618 Z M874.95972,400.923 L858.82512,391.5252 L844.05012,382.9176 L844.05012,346.9194 L871.68792,330.819 C872.40612,331.8582 873.59832,332.5416 874.95852,332.5416 C877.15512,332.5416 878.94252,330.7386 878.94252,328.5276 C878.94252,326.4096 877.32612,324.681 875.28012,324.5148 L875.28012,256.3128 L937.09632,292.3236 L937.09632,364.7238 L874.95972,400.923 Z M793.26192,354.1062 C793.02132,354.6258 792.88332,355.2042 792.88332,355.8168 C792.88332,357.9282 794.47812,359.6562 796.53012,359.829 L796.53012,370.0134 C794.47812,370.1856 792.88332,371.9118 792.88332,374.01 C792.88332,374.6256 793.02252,375.2064 793.26552,375.7284 L781.57512,382.5384 L781.57512,347.2998 L793.26192,354.1062 Z M812.14632,346.5354 L800.13732,353.52 C799.41732,352.4748 798.22092,351.7896 796.86732,351.7896 C795.50112,351.7896 794.30472,352.4778 793.58772,353.5272 L781.90272,346.7202 L812.14632,329.1042 L812.14632,346.5354 Z M831.37452,353.5284 C830.65452,352.4778 829.45512,351.7896 828.09732,351.7896 C826.74252,351.7896 825.54432,352.4766 824.82432,353.5242 L812.82012,346.5366 L812.82012,329.1054 L843.06252,346.7196 L831.37452,353.5284 Z M828.43512,373.8204 L828.43512,359.8284 C830.47512,359.655 832.08312,357.9276 832.08312,355.8168 C832.08312,355.2066 831.94452,354.63 831.70392,354.1116 L843.39132,347.3028 L843.39132,382.5336 L828.43512,373.8204 Z M812.14632,364.3374 L800.46672,357.534 C800.71092,357.0126 800.85132,356.4318 800.85132,355.8168 C800.85132,355.2012 800.71032,354.6204 800.46672,354.099 L812.14632,347.2974 L812.14632,364.3374 Z M824.49792,357.534 L812.82012,364.3368 L812.82012,347.2986 L824.49612,354.1044 C824.25312,354.624 824.11332,355.2036 824.11332,355.8168 C824.11332,356.4318 824.25372,357.0126 824.49792,357.534 L824.49792,357.534 Z M813.15312,364.9182 L824.82912,358.1166 C825.48912,359.0736 826.54872,359.7258 827.76132,359.829 L827.76132,373.4286 L813.15312,364.9182 Z M797.19012,370.0128 L797.19012,359.8296 C798.41112,359.73 799.47732,359.0748 800.13912,358.1118 L811.82352,364.917 L800.13792,371.7246 C799.47552,370.7658 798.40992,370.1118 797.19012,370.0128 L797.19012,370.0128 Z M812.48232,379.0938 C811.12812,379.0938 809.93172,379.7796 809.21172,380.8218 L800.46672,375.7284 C800.71032,375.207 800.85132,374.6256 800.85132,374.01 C800.85132,373.401 800.71152,372.8244 800.46912,372.3066 L812.48232,365.3088 L827.42712,374.0148 L815.75232,380.8206 C815.03232,379.779 813.83592,379.0938 812.48232,379.0938 L812.48232,379.0938 Z M874.62132,255.9288 L874.62132,324.5154 C872.56932,324.6882 870.97332,326.4144 870.97332,328.5276 C870.97332,329.1396 871.11312,329.7186 871.35672,330.2382 L843.71952,346.3374 L812.82012,328.3284 L812.82012,237.729 L828.09192,228.825 L874.62132,255.9288 Z M827.42712,228.438 L812.82012,236.9532 L812.82012,219.9288 L827.42712,228.438 Z M800.46672,226.7316 L812.14632,219.9282 L812.14632,236.9544 L800.46912,230.1534 C800.71152,229.635 800.85132,229.0584 800.85132,228.4488 C800.85132,227.8338 800.71092,227.253 800.46672,226.7316 L800.46672,226.7316 Z M812.48232,397.2876 C811.12992,397.2876 809.93472,397.971 809.21412,399.0156 L781.91532,383.1144 L793.59552,376.3104 C794.31252,377.355 795.50592,378.0396 796.86732,378.0396 C798.22212,378.0396 799.41912,377.3526 800.13912,376.3056 L808.88112,381.4026 C808.63812,381.9204 808.49832,382.4964 808.49832,383.1066 C808.49832,385.3338 810.28512,387.135 812.48232,387.135 C814.68012,387.135 816.46632,385.3338 816.46632,383.1066 C816.46632,382.4964 816.32652,381.9204 816.08352,381.4026 L828.09072,374.4012 L843.04992,383.115 L815.75052,399.0156 C815.02992,397.971 813.83472,397.2876 812.48232,397.2876 L812.48232,397.2876 Z M871.68432,185.2488 C872.34192,186.2064 873.40032,186.8586 874.62132,186.9612 L874.62132,255.1644 L828.43512,228.258 L828.43512,210.4446 L871.68432,185.2488 Z M812.48232,205.1718 C813.83472,205.1718 815.02932,204.4884 815.74992,203.4444 L827.43372,210.255 L812.48892,218.961 L812.48232,218.9568 L812.21292,219.1134 L812.14632,219.147 L812.14632,219.1524 L800.13552,226.149 C799.47312,225.189 798.40872,224.5356 797.19012,224.4366 L797.19012,210.4458 L809.21412,203.4438 C809.93412,204.4878 811.12992,205.1718 812.48232,205.1718 L812.48232,205.1718 Z M702.82512,224.4366 C700.77852,224.6028 699.16152,226.3332 699.16152,228.4488 C699.16152,229.059 699.30192,229.6356 699.54492,230.154 L687.86832,236.9538 L687.86832,223.3482 C689.92032,223.1754 691.51632,221.4492 691.51632,219.3378 C691.51632,218.7294 691.37832,218.1546 691.13772,217.6368 L702.82512,210.8286 L702.82512,224.4366 Z M437.98032,365.1036 L499.78212,329.1066 L499.78212,397.3044 C497.72952,397.4772 496.13532,399.2034 496.13532,401.3148 C496.13532,401.9226 496.27272,402.4974 496.51272,403.0146 L437.98032,437.1252 L437.98032,365.1036 Z M187.41852,473.5158 L156.84732,455.7048 L156.84732,419.6988 L187.41852,401.8884 L187.41852,473.5158 Z M218.65632,451.8978 C216.61272,452.0682 215.00232,453.795 215.00232,455.895 C215.00232,456.5094 215.14212,457.0896 215.38512,457.6098 L188.08632,473.511 L188.08632,401.8926 L218.65632,419.6988 L218.65632,451.8978 Z M246.62232,399.5994 C246.37992,400.1202 246.24012,400.7004 246.24012,401.3148 C246.24012,403.416 247.84632,405.1434 249.89532,405.312 L249.89532,473.898 L188.08632,509.898 L188.08632,474.2868 L215.71512,458.1912 C216.43512,459.237 217.63212,459.9228 218.98632,459.9228 C221.19132,459.9228 222.97032,458.121 222.97032,455.895 C222.97032,453.7944 221.36532,452.0676 219.31632,451.8978 L219.31632,419.3178 L188.08632,401.1156 L188.08632,365.5056 L246.62232,399.5994 Z M327.64452,374.0184 L312.69252,382.7268 L297.74772,374.0148 L312.69252,365.3088 L327.64452,374.0184 Z M312.69252,364.533 L297.41352,373.434 L297.41352,356.007 L312.69252,347.1018 L324.70872,354.099 C324.46452,354.6204 324.32352,355.2012 324.32352,355.8168 C324.32352,357.9324 325.93872,359.6628 327.98532,359.8296 L327.98532,373.4382 L312.69252,364.533 Z M309.09192,326.8116 C308.84892,327.3324 308.70852,327.9126 308.70852,328.5276 C308.70852,330.7386 310.49532,332.5416 312.69252,332.5416 C314.90412,332.5416 316.67652,330.7386 316.67652,328.5276 C316.67652,327.912 316.53732,327.3312 316.29492,326.8098 L343.92432,310.7124 L374.84532,328.722 L374.84532,397.3038 C373.62792,397.4028 372.56532,398.0538 371.90232,399.0114 L328.64532,373.8222 L328.64532,359.829 C330.69852,359.6562 332.30712,357.9282 332.30712,355.8168 C332.30712,353.5908 330.52032,351.7896 328.30812,351.7896 C326.95212,351.7896 325.75452,352.4766 325.03452,353.5242 L312.69252,346.3398 L296.91552,355.524 L296.74032,355.6266 L296.74032,373.8264 L253.49532,399.0186 C252.77472,397.9728 251.57772,397.2876 250.22352,397.2876 C248.86812,397.2876 247.67472,397.9704 246.95532,399.0138 L188.40672,364.917 L281.45592,310.7166 L309.09192,326.8116 Z M312.69252,292.521 L343.26072,310.326 L315.96372,326.226 C315.24612,325.182 314.05332,324.498 312.69252,324.498 C311.34012,324.498 310.14492,325.182 309.42432,326.2266 L282.13212,310.3224 L312.69252,292.521 Z M313.35852,292.1334 L340.65432,276.231 C341.31552,277.1886 342.37872,277.8414 343.60032,277.944 L343.60032,309.7488 L313.35852,292.1334 Z M378.43992,403.5996 L436.98492,437.7048 L375.50532,473.5194 L375.50532,405.3114 C376.71972,405.2082 377.78052,404.5554 378.43992,403.5996 L378.43992,403.5996 Z M437.30712,437.124 L378.77292,403.014 C379.01412,402.4968 379.15332,401.9226 379.15332,401.3148 C379.15332,399.204 377.54532,397.4784 375.50532,397.3044 L375.50532,329.1066 L437.30712,365.1036 L437.30712,437.124 Z M403.12992,239.832 C403.85172,240.8742 405.05112,241.5588 406.41252,241.5588 C407.76492,241.5588 408.96012,240.8748 409.68132,239.8344 L434.04312,254.022 C433.79892,254.5434 433.65852,255.1236 433.65852,255.7386 C433.65852,256.35 433.79772,256.9266 434.03892,257.4444 L409.67892,271.6344 C408.95772,270.5922 407.76312,269.9046 406.41252,269.9046 C405.05172,269.9046 403.85232,270.5946 403.13052,271.6398 L375.83052,255.7374 L403.12992,239.832 Z M437.30712,182.7666 L406.23732,200.8656 L406.07652,200.9538 L406.07652,233.5344 C404.02392,233.7066 402.41352,235.4328 402.41352,237.5448 C402.41352,238.1556 402.55392,238.7328 402.79752,239.2512 L375.50532,255.1512 L375.50532,183.1416 L437.30712,147.1416 L437.30712,182.7666 Z M406.73532,233.5338 L406.73532,201.3348 L437.30712,183.5436 L437.30712,219.147 L409.67952,235.2426 C409.01652,234.2838 407.95272,233.6328 406.73532,233.5338 L406.73532,233.5338 Z M437.64432,251.7108 C436.29132,251.7108 435.09552,252.3948 434.37492,253.44 L410.01492,239.2512 C410.25852,238.7322 410.39832,238.1556 410.39832,237.5448 C410.39832,236.928 410.25672,236.3454 410.01132,235.8228 L437.80512,219.6306 L437.98032,219.5418 L437.98032,183.5424 L468.55152,201.3348 L468.55152,237.3408 L440.91312,253.44 C440.19252,252.3948 438.99732,251.7108 437.64432,251.7108 L437.64432,251.7108 Z M437.64432,291.7446 L410.01372,275.6496 C410.25792,275.1282 410.39832,274.5474 410.39832,273.9318 C410.39832,273.3186 410.25672,272.7372 410.01012,272.2146 L434.36952,258.0264 C435.09012,259.071 436.28832,259.7526 437.64432,259.7526 C439.00032,259.7526 440.19792,259.0704 440.91792,258.0264 L468.22332,273.9312 L437.64432,291.7446 Z M406.73532,277.9446 C407.95752,277.845 409.02432,277.1898 409.68672,276.2256 L436.98492,292.1286 L406.73532,309.75 L406.73532,277.9446 Z M465.27492,312.0372 L437.64432,328.1316 L407.07672,310.3272 L437.64432,292.521 L465.27192,308.6154 C465.03012,309.1332 464.89032,309.7092 464.89032,310.3188 C464.89032,310.9344 465.03072,311.5152 465.27492,312.0372 L465.27492,312.0372 Z M375.17292,256.1196 L402.80172,272.2146 C402.55572,272.7372 402.41352,273.3186 402.41352,273.9318 C402.41352,276.045 404.02392,277.7718 406.07652,277.944 L406.07652,310.134 L375.17052,328.1382 L344.26032,310.1334 L344.26032,277.9446 C346.30692,277.7778 347.92152,276.0492 347.92152,273.9318 C347.92152,273.3204 347.78112,272.742 347.53692,272.2206 L375.17292,256.1196 Z M285.06192,272.2206 L312.69252,256.1196 L340.32612,272.2152 C340.08012,272.7378 339.93852,273.3186 339.93852,273.9318 C339.93852,274.5468 340.07892,275.127 340.32252,275.6478 L312.69252,291.7446 L285.06312,275.6472 C285.30672,275.1264 285.44652,274.5462 285.44652,273.9318 C285.44652,273.3204 285.30612,272.742 285.06192,272.2206 L285.06192,272.2206 Z M316.29972,439.4082 C316.53912,438.8898 316.67652,438.3132 316.67652,437.7018 C316.67652,435.4758 314.90412,433.6728 312.69252,433.6728 C310.49532,433.6728 308.70852,435.4758 308.70852,437.7018 C308.70852,438.3168 308.84892,438.897 309.09252,439.4178 L250.55412,473.5182 L250.55412,405.312 C252.59712,405.1422 254.20932,403.4154 254.20932,401.3148 C254.20932,400.7004 254.06892,400.1202 253.82532,399.5994 L297.08352,374.4012 L312.69252,383.5026 L328.30812,374.4048 L371.56572,399.603 C371.32332,400.1226 371.18352,400.7016 371.18352,401.3148 C371.18352,403.413 372.79152,405.1386 374.83212,405.3114 L374.83212,473.5086 L316.29972,439.4082 Z M406.40292,491.9022 L375.84132,474.0972 L437.30712,438.2946 L437.30712,473.9046 L406.40292,491.9022 Z M422.35032,515.574 L422.35032,501.9684 L434.04072,508.7778 C433.79832,509.2974 433.65852,509.8764 433.65852,510.4896 C433.65852,511.1016 433.79952,511.6794 434.04372,512.199 L425.30112,517.2918 C424.63812,516.3282 423.57132,515.673 422.35032,515.574 L422.35032,515.574 Z M422.02932,501.006 L407.07072,492.291 L437.30712,474.6798 L437.30712,492.0978 L422.02932,501.006 Z M437.30712,506.4792 C436.09152,506.5824 435.03072,507.2364 434.37072,508.1958 L422.68572,501.3882 L437.30712,492.8736 L437.30712,506.4792 Z M452.93652,519.0102 L441.24312,512.199 C441.48732,511.68 441.62832,511.1016 441.62832,510.4896 C441.62832,508.3782 440.02092,506.652 437.98032,506.4792 L437.98032,492.8724 L452.93652,501.5838 L452.93652,519.0102 Z M562.59432,433.6728 C561.23112,433.6728 560.03052,434.3592 559.30872,435.4068 L503.72052,403.0194 C503.96352,402.5016 504.10332,401.925 504.10332,401.3148 C504.10332,399.1992 502.48812,397.47 500.44152,397.3038 L500.44152,328.722 L559.31592,294.4308 C560.03832,295.4724 561.23532,296.1546 562.59432,296.1546 C563.94672,296.1546 565.14252,295.47 565.86372,294.426 L621.45672,326.8086 C621.21192,327.3306 621.07152,327.9114 621.07152,328.5276 C621.07152,330.6288 622.68612,332.358 624.73332,332.5248 L624.73332,397.3038 C622.68612,397.47 621.07152,399.1992 621.07152,401.3148 C621.07152,401.925 621.21132,402.5016 621.45432,403.02 L565.87092,435.4116 C565.15032,434.3616 563.95092,433.6728 562.59432,433.6728 L562.59432,433.6728 Z M843.71772,419.124 L816.08412,403.0182 C816.32652,402.5004 816.46632,401.9244 816.46632,401.3148 C816.46632,400.6998 816.32592,400.1196 816.08232,399.5988 L843.71472,383.502 L874.29072,401.313 L843.71772,419.124 Z M937.43352,437.3208 L875.62332,401.3112 L937.59432,365.2068 L937.75632,365.1036 L937.75632,292.3332 L999.91032,256.1256 L1058.76852,290.4222 C1058.52552,290.9406 1058.38632,291.5166 1058.38632,292.1256 C1058.38632,294.2424 1060.00092,295.9716 1062.04752,296.1378 L1062.04752,360.9018 C1060.00092,361.0692 1058.38632,362.8116 1058.38632,364.9146 C1058.38632,365.5296 1058.52672,366.1092 1058.77032,366.6306 L999.73332,401.022 L999.57252,401.109 L999.57252,401.1198 L937.43352,437.3208 Z M1062.70812,496.293 C1063.92852,496.1904 1064.98632,495.5382 1065.64392,494.583 L1077.32172,501.3852 L1062.70812,509.898 L1062.70812,496.293 Z M1062.04752,496.2936 L1062.04752,509.907 L1047.42492,501.3894 L1059.10032,494.583 C1059.76272,495.5412 1060.82832,496.1946 1062.04752,496.2936 L1062.04752,496.2936 Z M1124.50932,259.7352 L1124.50932,324.5154 C1122.47052,324.6882 1120.86132,326.415 1120.86132,328.5276 C1120.86132,329.1384 1121.00172,329.7162 1121.24592,330.2358 L1065.64272,362.6208 C1064.98572,361.6626 1063.92852,361.0062 1062.70812,360.9024 L1062.70812,296.1372 C1064.75952,295.9644 1066.35432,294.2382 1066.35432,292.1256 C1066.35432,291.516 1066.21572,290.94 1065.97452,290.4216 L1121.57532,258.0312 C1122.23532,258.9858 1123.29552,259.6332 1124.50932,259.7352 L1124.50932,259.7352 Z M1158.43512,18.1998 L1158.43512,17.4306 L1124.85252,36.9918 L1062.37032,0.6 L999.73332,37.0896 L999.57252,37.1838 L999.57252,106.1658 C997.52592,106.332 995.91012,108.0606 995.91012,110.1636 C995.91012,112.3896 997.69752,114.1908 999.89532,114.1908 C1001.25912,114.1908 1002.46032,113.5044 1003.18212,112.4562 L1061.71092,146.5518 L1003.17792,180.6516 C1002.45552,179.607 1001.25672,178.9218 999.89532,178.9218 C998.54112,178.9218 997.34412,179.6082 996.62352,180.6546 L941.03292,148.2738 C941.27712,147.7542 941.41752,147.1758 941.41752,146.5638 C941.41752,144.3378 939.63132,142.5366 937.43352,142.5366 C935.22132,142.5366 933.43512,144.3378 933.43512,146.5638 C933.43512,147.1752 933.57552,147.7536 933.81972,148.2726 L878.22732,180.6516 C877.50672,179.607 876.31092,178.9218 874.95852,178.9218 C873.59352,178.9218 872.39712,179.6094 871.67952,180.6588 L813.14112,146.5608 L875.11932,110.4558 L875.28012,110.3538 L875.28012,37.1838 L812.64432,0.6948 L812.48232,0.6 L749.84532,37.0896 L749.67012,37.1838 L749.67012,106.1664 C747.63072,106.3404 746.02332,108.0654 746.02332,110.1636 C746.02332,112.3896 747.80952,114.1908 750.00732,114.1908 C751.36272,114.1908 752.56032,113.5044 753.28032,112.4568 L811.82232,146.5524 L703.15872,209.8608 L687.53112,200.7636 L671.75532,209.9628 L671.58012,210.0498 L671.58012,228.6396 L687.20952,237.7392 L687.20952,291.9312 L628.33872,326.2272 C627.61692,325.1826 626.41812,324.498 625.05612,324.498 C623.70132,324.498 622.50492,325.1838 621.78432,326.2308 L566.19252,293.8494 C566.43792,293.3262 566.58012,292.7436 566.58012,292.1256 C566.58012,289.9146 564.79152,288.1116 562.59432,288.1116 C560.38332,288.1116 558.59532,289.9146 558.59532,292.1256 C558.59532,292.743 558.73632,293.325 558.98232,293.8476 L500.10372,328.14 L472.48272,312.0492 C472.73052,311.5242 472.87332,310.9392 472.87332,310.3188 C472.87332,308.22 471.26532,306.4944 469.21152,306.3216 L469.21152,274.1316 L500.28012,256.032 L500.44152,255.9288 L500.44152,182.7606 L437.98032,146.373 L437.98032,73.5786 L312.86832,0.6948 L312.69252,0.6 L250.22472,36.9924 L187.91652,0.6948 L187.74852,0.6 L128.54832,35.0874 C127.82772,34.0446 126.63252,33.3606 125.28012,33.3606 C123.07632,33.3606 121.28832,35.1636 121.28832,37.3818 C121.28832,39.4878 122.89752,41.214 124.94352,41.3862 L124.94352,110.3538 L187.41852,146.7444 L187.41852,200.9556 L171.96552,209.9628 L171.80412,210.0498 L171.80412,228.6396 L187.74852,237.9258 L203.36052,228.8274 L277.86072,272.223 C277.61772,272.7438 277.47732,273.3216 277.47732,273.9318 C277.47732,276.0438 279.08532,277.77 281.12532,277.944 L281.12532,310.1328 L187.58832,364.62 L187.41852,364.7238 L187.41852,364.7256 L128.55132,399.0186 C127.83072,397.9728 126.63372,397.2876 125.28012,397.2876 C123.07632,397.2876 121.28832,399.0888 121.28832,401.3148 C121.28832,403.4136 122.89752,405.1392 124.94352,405.312 L124.94352,470.0922 C122.89752,470.2644 121.28832,471.9906 121.28832,474.0888 C121.28832,476.3148 123.07632,478.1166 125.28012,478.1166 C126.63132,478.1166 127.82592,477.4332 128.54652,476.3916 L187.41852,510.678 L187.41852,510.6798 L187.41852,534.5718 L188.08632,534.5718 L188.08632,511.0686 L228.42732,534.5718 L229.76052,534.5718 L188.41332,510.4896 L250.22472,474.4848 L312.02712,510.4824 L270.68832,534.5718 L272.02152,534.5718 L312.69252,510.87 L353.37132,534.5718 L354.70512,534.5718 L313.35852,510.4824 L374.84532,474.6636 L374.84532,534.5718 L375.50532,534.5718 L375.50532,474.6834 L406.07652,492.4896 L406.07652,524.6724 C404.02392,524.8446 402.41352,526.5708 402.41352,528.6828 C402.41352,529.2972 402.55392,529.8774 402.79752,530.3982 L395.63232,534.5718 L396.96552,534.5718 L403.12932,530.9814 C403.85112,532.0272 405.05112,532.7118 406.41252,532.7118 C407.76792,532.7118 408.96492,532.0254 409.68552,530.9784 L415.84632,534.5718 L417.18012,534.5718 L410.01372,530.4006 C410.25792,529.8792 410.39832,529.2984 410.39832,528.6828 C410.39832,528.0696 410.25852,527.4906 410.01552,526.9704 L418.75512,521.88 C419.47572,522.9276 420.67332,523.6146 422.02932,523.6146 C423.38352,523.6146 424.58052,522.9282 425.30052,521.8818 L437.30712,528.882 L437.30712,534.5718 L437.98032,534.5718 L437.98032,528.8826 L453.25992,519.9726 L468.21852,528.6864 L458.10732,534.5718 L459.44052,534.5718 L468.87612,529.0692 L478.32252,534.5718 L479.65512,534.5718 L469.21152,528.4896 L469.21152,492.0918 L437.98032,473.9034 L437.98032,438.2934 L499.78212,474.2928 L499.78212,534.5718 L500.44152,534.5718 L500.44152,474.2928 L559.31652,440.007 C560.03892,441.0474 561.23532,441.7296 562.59432,441.7296 C563.94672,441.7296 565.14192,441.0456 565.86312,440.0016 L624.73332,474.2928 L624.73332,534.5718 L625.39332,534.5718 L625.39332,474.6774 L671.58012,501.5796 L671.58012,515.5752 C669.53952,515.7474 667.93212,517.4742 667.93212,519.5868 C667.93212,520.2018 668.07192,520.782 668.31552,521.3034 L645.53352,534.5718 L646.85232,534.5718 L668.64492,521.8824 C669.36492,522.9288 670.56132,523.6146 671.91552,523.6146 C673.27032,523.6146 674.46792,522.9282 675.18852,521.8818 L687.53112,529.0788 L703.48332,519.7776 L703.48332,501.5772 L749.67012,474.6714 L749.67012,534.5718 L750.34332,534.5718 L750.34332,474.6846 L808.88232,508.7736 C808.63812,509.2944 808.49832,509.8746 808.49832,510.4896 C808.49832,511.0992 808.63752,511.6752 808.88052,512.1936 L770.47032,534.5718 L771.80352,534.5718 L809.21232,512.7756 C809.93232,513.8184 811.12872,514.5036 812.48232,514.5036 C813.83592,514.5036 815.03232,513.8184 815.75232,512.7756 L853.16052,534.5718 L854.49432,534.5718 L816.08412,512.1936 C816.32652,511.6752 816.46632,511.0992 816.46632,510.4896 C816.46632,509.8746 816.32592,509.2944 816.08232,508.773 L871.67592,476.3874 C872.33712,477.3444 873.39972,477.9966 874.62132,478.0992 L874.62132,534.5718 L875.28012,534.5718 L875.28012,478.0998 C877.32612,477.9342 878.94252,476.205 878.94252,474.0888 C878.94252,473.4786 878.80272,472.9014 878.55912,472.383 L937.43352,438.0978 L999.57252,474.2928 L999.57252,534.5718 L1000.23132,534.5718 L1000.23132,474.6762 L1046.41752,501.5784 L1046.41752,519.3888 L1020.35832,534.5718 L1021.69152,534.5718 L1046.75052,519.9714 L1058.76552,526.977 C1058.52492,527.4954 1058.38632,528.072 1058.38632,528.6828 C1058.38632,530.91 1060.17252,532.7118 1062.37032,532.7118 C1064.58312,532.7118 1066.35432,530.91 1066.35432,528.6828 C1066.35432,528.0714 1066.21692,527.4942 1065.97692,526.9758 L1077.99012,519.9714 L1103.04852,534.5718 L1104.38232,534.5718 L1078.32252,519.3894 L1078.32252,501.5772 L1121.57292,476.382 C1122.23292,477.342 1123.29432,477.996 1124.50932,478.0992 L1124.50932,534.5718 L1125.18312,534.5718 L1125.18312,478.0992 C1127.22252,477.9258 1128.83112,476.1996 1128.83112,474.0888 C1128.83112,473.481 1128.69192,472.9062 1128.45012,472.3884 L1158.43512,454.9146 L1158.43512,454.1376 L1128.12012,471.8076 C1127.46012,470.85 1126.39872,470.1954 1125.18312,470.0922 L1125.18312,405.3114 C1126.39512,405.2082 1127.45352,404.5572 1128.11352,403.605 L1158.43512,421.2666 L1158.43512,420.4896 L1128.45072,403.014 C1128.69192,402.4968 1128.83112,401.9226 1128.83112,401.3148 C1128.83112,399.204 1127.22252,397.4784 1125.18312,397.3044 L1125.18312,332.5242 C1126.39512,332.421 1127.45292,331.7694 1128.11352,330.8172 L1152.47412,345.0066 C1152.23112,345.5274 1152.09132,346.107 1152.09132,346.7208 C1152.09132,348.8364 1153.70772,350.5656 1155.75432,350.7318 L1155.75432,383.3118 L1158.43512,384.8646 L1158.43512,384.0888 L1156.41252,382.9158 L1156.41252,350.7198 C1157.17032,350.6526 1157.86092,350.379 1158.43512,349.9578 L1158.43512,348.4788 L1158.43512,347.7018 L1158.43512,345.7386 L1158.43512,344.9628 L1158.43512,343.482 C1157.77632,342.999 1156.96932,342.6918 1156.07652,342.6918 C1154.72292,342.6918 1153.52592,343.377 1152.80532,344.4234 L1128.44532,330.237 C1128.69012,329.7174 1128.83112,329.139 1128.83112,328.5276 C1128.83112,327.9138 1128.69132,327.3348 1128.44832,326.8146 L1158.43512,309.3378 L1158.43512,308.5758 L1128.11892,326.2326 C1127.45892,325.2732 1126.39812,324.6192 1125.18312,324.5154 L1125.18312,259.7352 C1127.22252,259.563 1128.83112,257.8506 1128.83112,255.7386 C1128.83112,255.1254 1128.69132,254.5464 1128.44892,254.0268 L1158.43512,236.5638 L1158.43512,235.7886 L1128.11952,253.4454 C1127.45952,252.486 1126.39812,251.8314 1125.18312,251.7282 L1125.18312,183.147 L1158.43512,163.776 L1158.43512,162.999 L1124.84892,182.5662 L1063.03692,146.5566 L1124.84592,110.55 L1158.43512,130.1136 L1158.43512,129.3528 L1125.18312,109.9728 L1125.18312,37.572 L1158.43512,18.1998 Z" id="Fill-21"></path>
                <path d="M312.69258,201.54036 L327.98538,210.44556 L327.98538,224.43636 C325.93878,224.60316 324.32358,226.33296 324.32358,228.44916 C324.32358,229.05876 324.46338,229.63476 324.70578,230.15316 L315.96438,235.24476 C315.24618,234.20136 314.05338,233.51736 312.69258,233.51736 C311.34018,233.51736 310.14498,234.20136 309.42498,235.24536 L300.68178,230.14836 C300.92298,229.63116 301.06158,229.05636 301.06158,228.44916 C301.06158,226.33776 299.45418,224.60976 297.41358,224.43696 L297.41358,210.44556 L312.69258,201.54036 Z M297.07758,232.46256 C298.42998,232.46256 299.62518,231.77856 300.34578,230.73816 L309.09198,235.82976 C308.84898,236.35056 308.70858,236.93016 308.70858,237.54456 C308.70858,239.75736 310.49538,241.55856 312.69258,241.55856 C314.90418,241.55856 316.67658,239.75736 316.67658,237.54456 C316.67658,236.92956 316.53738,236.34936 316.29438,235.82796 L325.03758,230.73516 C325.75758,231.77796 326.95398,232.46256 328.30758,232.46256 C330.52038,232.46256 332.30658,230.66136 332.30658,228.44916 C332.30658,226.33776 330.69858,224.60976 328.64538,224.43696 L328.64538,210.05016 L312.69258,200.76336 L296.91558,209.96256 L296.74038,210.05016 L296.74038,224.43696 C294.70038,224.61096 293.09238,226.33836 293.09238,228.44916 C293.09238,230.66136 294.88038,232.46256 297.07758,232.46256 L297.07758,232.46256 Z" id="Fill-24"></path>
                <path d="M969.0012,524.67258 L969.0012,492.09198 L941.034,475.80438 C941.2776,475.28358 941.4174,474.70338 941.4174,474.08898 C941.4174,471.87618 939.6312,470.07498 937.434,470.07498 C935.2212,470.07498 933.435,471.87618 933.435,474.08898 C933.435,474.70578 933.576,475.28778 933.822,475.81038 L905.8512,492.09198 L905.8512,528.87318 L915.6372,534.57198 L916.956,534.57198 L906.5262,528.49218 L906.5262,492.48618 L934.155,476.39298 C934.8774,477.43458 936.0738,478.11618 937.434,478.11618 C938.7864,478.11618 939.9816,477.43218 940.7022,476.38758 L968.3274,492.48618 L968.3274,524.67258 C966.2874,524.84538 964.68,526.57158 964.68,528.68298 C964.68,529.29678 964.8198,529.87578 965.0622,530.39598 L957.8982,534.57198 L959.2164,534.57198 L965.3904,530.97618 C966.1104,532.02438 967.308,532.71138 968.664,532.71138 C970.8612,532.71138 972.6492,530.91018 972.6492,528.68298 C972.6492,526.57218 971.0412,524.84598 969.0012,524.67258" id="Fill-26"></path>
                <path d="M827.76126,64.8693 L827.76126,82.6743 L812.48226,91.5813 L797.19006,82.6743 L797.19006,64.8693 L809.21106,57.8691 C809.93106,58.9131 811.12806,59.5965 812.48226,59.5965 C813.83646,59.5965 815.03226,58.9137 815.75226,57.8697 L827.76126,64.8693 Z M816.46626,55.5753 C816.46626,53.3553 814.68006,51.5541 812.48226,51.5541 C810.28506,51.5541 808.49826,53.3553 808.49826,55.5753 C808.49826,56.1885 808.63746,56.7663 808.87986,57.2853 L796.69146,64.3863 L796.53006,64.4811 L796.53006,83.0625 L812.48226,92.3571 L828.25926,83.1663 L828.43506,83.0625 L828.43506,64.4811 L816.08466,57.2853 C816.32706,56.7663 816.46626,56.1885 816.46626,55.5753 L816.46626,55.5753 Z" id="Fill-29"></path>
            </g>
        </g>
    </g>
</svg>