<svg fill="#5D6BF6" viewBox="0 0 512 512" xmlns="http://www.w3.org/2000/svg" xmlns:xlink="http://www.w3.org/1999/xlink">
  <path d="M489.941 63.687a41.941 41.941 0 00-71.6-29.657l-240 240a8.117 8.117 0 00-.629.716c-.017.022-.038.041-.055.063l-77.231 100.4a59.179 59.179 0 00-19.526 1.759c-12.212 3.331-27.806 12.48-32.74 37.15-7.18 35.9-27.759 50.341-28.593 50.912a8 8 0 00.86 13.812 89.663 89.663 0 0032.108 7.831c1.638.1 3.348.151 5.124.151 16.816 0 39.415-4.892 60-25.481 20.128-20.128 20.492-40.6 19.168-50.352l100.053-76.964c.022-.017.041-.038.063-.055a8.117 8.117 0 00.716-.629l240-240a41.663 41.663 0 0012.282-29.656zM232 316.373l-36.686-36.686L208 267l36.686 36.686zm-47.214-24.587L219.9 326.9l-91.21 70.163L114.624 383zM106.343 450.03c-24.443 24.445-51.989 22.389-67.184 18.535 8.448-9.38 19.605-25.9 24.686-51.31 2.675-13.378 9.479-21.464 20.8-24.721a43.046 43.046 0 0115.606-1.285l20.527 20.527c.993 5.133 2.406 21.413-14.435 38.254zm360-368L256 292.373l-36.686-36.686L429.657 45.343a25.941 25.941 0 0136.686 36.687z"/>
</svg>