<svg fill="#5D6BF6" viewBox="0 0 74 74" xmlns="http://www.w3.org/2000/svg" xmlns:xlink="http://www.w3.org/1999/xlink">
  <g data-name="line icons">
    <path d="M71 48.153H54.786a1 1 0 010-2H70V28.25H55.2a1 1 0 010-2H71a1 1 0 011 1v19.9a1 1 0 01-1 1.003z"/>
    <path d="M65.316 61.709H8.684A6.691 6.691 0 012 55.026v-34.8a6.691 6.691 0 016.684-6.683H22.56l2.054-6.329a4.253 4.253 0 014.036-2.923h16.715a4.212 4.212 0 014.022 2.927l2.053 6.327h13.876A6.691 6.691 0 0172 20.228v34.8a6.691 6.691 0 01-6.684 6.681zM8.684 15.545A4.689 4.689 0 004 20.228v34.8a4.689 4.689 0 004.684 4.683h56.632A4.689 4.689 0 0070 55.026v-34.8a4.689 4.689 0 00-4.684-4.683h-14.6a1 1 0 01-.951-.691l-2.28-7.021a2.245 2.245 0 00-2.118-1.542H28.65a2.252 2.252 0 00-2.135 1.55l-2.278 7.013a1 1 0 01-.951.691z"/>
    <path d="M43 10.6H31.016a1 1 0 010-2H43a1 1 0 010 2zM19 48.153H3a1 1 0 01-1-1V27.25a1 1 0 011-1h15.534a1 1 0 010 2H4v17.9h15a1 1 0 010 2z"/>
    <path d="M37 58.407A21.547 21.547 0 1158.547 36.86 21.571 21.571 0 0137 58.407zm0-41.094A19.547 19.547 0 1056.547 36.86 19.569 19.569 0 0037 17.313z"/>
    <path d="M37 53.532A16.672 16.672 0 1153.672 36.86 16.691 16.691 0 0137 53.532zm0-31.344A14.672 14.672 0 1051.672 36.86 14.689 14.689 0 0037 22.188z"/>
    <path d="M26.9 37.86a1 1 0 01-1-1A11.111 11.111 0 0137 25.762a1 1 0 010 2 9.108 9.108 0 00-9.1 9.1 1 1 0 01-1 .998zM64.983 23.011H56.31a1 1 0 01-1-1v-3.672a1 1 0 011-1h8.673a1 1 0 011 1v3.672a1 1 0 01-1 1zm-7.673-2h6.673v-1.672H57.31zM17.078 15.545H9.513a1 1 0 01-1-1v-2.932A3.014 3.014 0 0111.524 8.6h3.542a3.014 3.014 0 013.012 3.011v2.932a1 1 0 01-1 1.002zm-6.565-2h5.565v-1.932a1.013 1.013 0 00-1.012-1.013h-3.542a1.013 1.013 0 00-1.011 1.011z"/>
  </g>
</svg>