<svg fill="#5D6BF6" viewBox="0 0 512 512" xmlns="http://www.w3.org/2000/svg" xmlns:xlink="http://www.w3.org/1999/xlink">
  <path d="M417.5 309.65c52.107 0 94.5-42.393 94.5-94.5 0-36.501-21.051-69.452-53.363-85.075-1.222-18.862-8.832-36.503-21.981-50.545-20.579-21.974-52.082-31.196-81.629-23.097C334.486 21.746 296.995 0 256 0s-78.486 21.746-99.027 56.434c-29.535-8.097-61.035 1.118-81.62 23.09-13.149 14.035-20.762 31.679-21.988 50.551C21.054 145.696 0 178.649 0 215.15c0 52.107 42.393 94.5 94.5 94.5h103.687l-.001 17.285H149.3c-12.062 0-19.193 13.567-12.357 23.502L227.461 482H65.099v-40.13c0-8.284-6.716-15-15-15s-15 6.716-15 15V497c0 8.284 6.716 15 15 15h411.778c8.284 0 15-6.716 15-15v-55.13c0-8.284-6.716-15-15-15s-15 6.716-15 15V482H284.519l90.539-131.573c6.838-9.938-.299-23.505-12.36-23.503l-48.894.009.001-17.282H417.5zm-323-30c-35.565 0-64.5-28.935-64.5-64.5 0-27.409 17.391-51.886 43.276-60.906 6.367-2.218 10.471-8.413 10.032-15.141-.952-14.585 3.998-28.46 13.938-39.069 16.337-17.439 41.018-20.742 60.516-11.405 7.652 3.662 16.832.252 20.227-7.531C191.53 50.057 222.151 30 256 30s64.47 20.057 78.011 51.098c3.393 7.775 12.566 11.197 20.227 7.531 19.515-9.344 44.2-6.021 60.521 11.408 9.942 10.616 14.892 24.488 13.935 39.061-.441 6.729 3.662 12.928 10.031 15.146C464.608 163.265 482 187.741 482 215.15c0 35.565-28.935 64.5-64.5 64.5H313.806l.006-119.126c0-8.28-6.717-15.001-15.001-15.001l-85.617.005c-8.284 0-14.999 6.716-14.999 14.999l-.007 119.123zm239.666 77.279l-78.177 113.609-78.161-113.603h35.357c8.284 0 15-6.715 15-14.999.001-16.461.008-150.083.009-166.409l55.617-.003c-.001 16.297-.008 149.993-.009 166.41 0 8.279 6.717 15.003 15.003 15.001z"/>
</svg>