<svg fill="#5D6BF6" viewBox="0 0 512 512" xmlns="http://www.w3.org/2000/svg" xmlns:xlink="http://www.w3.org/1999/xlink">
  <path d="M476 48H36A28.031 28.031 0 008 76v296a28.031 28.031 0 0028 28h162.24l-4.8 24H160a8 8 0 00-8 8v24a8 8 0 008 8h192a8 8 0 008-8v-24a8 8 0 00-8-8h-33.44l-4.8-24H476a28.031 28.031 0 0028-28V76a28.031 28.031 0 00-28-28zM344 440v8H168v-8zm-134.24-16l4.8-24h82.88l4.8 24zM488 372a12.01 12.01 0 01-12 12H36a12.01 12.01 0 01-12-12v-20h464zm0-36H24V76a12.01 12.01 0 0112-12h440a12.01 12.01 0 0112 12z"/>
  <path d="M264 360h-16a8 8 0 000 16h16a8 8 0 000-16z"/>
</svg>