<svg viewBox="0 0 512 512" xmlns="http://www.w3.org/2000/svg" xmlns:xlink="http://www.w3.org/1999/xlink">
  <g fill="none" fill-rule="evenodd">
    <path fill="#14163A" d="M0 0h512v512H0z"/>
    <g fill="#FFF" fill-rule="nonzero">
      <path d="M73.19392 197.111347c11.188531 0 20.295475-9.367142 20.295475-20.815872C93.489395 165.627341 84.382451 156 73.19392 156c-11.708928 0-20.815872 9.62734-20.815872 20.295475 0 11.44873 9.106944 20.815872 20.815872 20.815872zm18.734285 152.996659V215.585434H53.939238v134.522572h37.988967zm81.962496 3.122381c10.928333 0 23.157657-4.683571 30.963609-11.708928l-9.106944-24.718848c-2.601984 2.601984-7.805952 4.423373-13.00992 4.423373-7.025356 0-12.749721-6.244762-12.749721-15.091507v-59.845632h29.142221v-30.703411h-29.142221V178.63726h-36.427776v36.948173h-18.474087v30.70341h18.474087v65.830196c0 24.198451 16.652697 41.111347 40.330752 41.111347zM280.305088 353.091206V249.272045h29.142221v-30.703411h-29.142221v-7.285556c0-8.846745 5.724365-15.091507 12.749722-15.091507 5.203968 0 10.407936 1.821389 13.00992 4.423373l9.106944-23.157658c-7.805952-7.025356-20.035277-11.708928-30.96361-11.708928-23.678054 0-40.330752 16.912896-40.330752 41.111348v11.708928h-18.474086v30.70341h18.474086v103.819162h36.427776zm90.809242 0v-80.401305l.260198.780595c0-14.57111 12.229325-26.01984 28.101427-26.01984 15.091507 0 25.499443 11.44873 25.499443 28.101427v77.539123h36.687975v-85.605273c0-30.443213-20.815872-52.03968-49.958093-52.03968-17.433293 0-32.5248 7.805952-40.59095 20.035277v-16.912896h-37.988967v134.522572h37.988967z"/>
    </g>
  </g>
</svg>