<?xml version="1.0" encoding="UTF-8"?>
<svg width="7px" height="10px" viewBox="0 0 7 10" version="1.1" xmlns="http://www.w3.org/2000/svg" xmlns:xlink="http://www.w3.org/1999/xlink">
    <title>B992DAB4-BC33-4B8D-99CE-B6B0ECC5B73E</title>
    <g id="dgn" stroke="none" stroke-width="1" fill="none" fill-rule="evenodd">
        <g id="itfn-homepage" transform="translate(-797.000000, -1543.000000)" fill="#5D6BF6">
            <g id="firme" transform="translate(0.000000, 478.000000)">
                <g id="pagination" transform="translate(626.000000, 1056.000000)">
                    <g id="arrow-right" transform="translate(174.000000, 14.000000) scale(-1, 1) translate(-174.000000, -14.000000) translate(160.000000, 0.000000)">
                        <path d="M15.8489258,9.29852483 C15.6539617,9.10779436 15.3896974,9 15.1134211,9 C14.8373758,9 14.5731116,9.10779436 14.3781474,9.29852483 L10.3049203,13.2848822 C10.1099561,13.4756127 10,13.7343643 10,14.0044152 C10,14.274466 10.1099561,14.5332177 10.3049203,14.7239482 L14.3799954,18.7084977 C14.7867868,19.0996759 15.4400554,19.0969641 15.8436128,18.7014922 C16.2469392,18.3069241 16.2494802,17.6669375 15.8489258,17.2696577 L12.5102795,14.0035112 L15.8489258,10.7373648 C16.04389,10.5466343 16.1538462,10.2881087 16.1538462,10.0178318 C16.1538462,9.74778098 16.04389,9.48902933 15.8489258,9.29852483 Z" id="icon-small-arrow"></path>
                    </g>
                </g>
            </g>
        </g>
    </g>
</svg>